<?xml version="1.0" encoding="UTF-8"?>
<svg version="1.1" viewBox="0 0 225 225" xmlns="http://www.w3.org/2000/svg">
  <g transform="matrix(1.0339 0 0 1.0458 -4.4212 -.43326)">
    <path
      d="m75.25 138.31c0.9625-0.25152 2.5375-0.25152 3.5 0 0.9625 0.25153 0.175 0.45733-1.75 0.45733s-2.7125-0.2058-1.75-0.45733zm68.5-0.0164c1.2375-0.23836 3.2625-0.23836 4.5 0 1.2375 0.23835 0.225 0.43337-2.25 0.43337s-3.4875-0.19502-2.25-0.43337zm31-0.0408c6.1875-0.17544 16.312-0.17544 22.5 0 6.1875 0.17545 1.125 0.319-11.25 0.319s-17.438-0.14355-11.25-0.319zm-152-0.97689c1.7875-0.22182 4.7125-0.22182 6.5 0 1.7875 0.22183 0.325 0.40333-3.25 0.40333s-5.0375-0.1815-3.25-0.40333zm194.25-3.6541c0-0.20765 0.7875-0.99515 1.75-1.75 1.5861-1.2439 1.6214-1.2085 0.37756 0.37756-1.3064 1.6658-2.1276 2.1955-2.1276 1.3724zm4.355-13.122c-3e-3 -4.95 0.16605-7.1011 0.37577-4.7802 0.20972 2.3209 0.21222 6.3709 6e-3 9-0.20667 2.6291-0.37827 0.73017-0.38131-4.2198zm-17.276-3.0833c0.048-1.165 0.28494-1.4019 0.60416-0.60417 0.28887 0.72187 0.25335 1.5844-0.0789 1.9167-0.3323 0.33229-0.56864-0.25834-0.52522-1.3125zm-153.21-3.1667c-1.2439-1.5861-1.2085-1.6214 0.37756-0.37756 0.9625 0.75485 1.75 1.5424 1.75 1.75 0 0.82304-0.82119 0.29331-2.1276-1.3724zm131.88-0.98221c2.3375-0.21053 6.1625-0.21053 8.5 0 2.3375 0.21054 0.425 0.3828-4.25 0.3828s-6.5875-0.17226-4.25-0.3828zm35.655-4.5178-1.905-2.25 2.25 1.905c2.1144 1.7902 2.7052 2.595 1.905 2.595-0.18976 0-1.2023-1.0125-2.25-2.25zm-174.65-8.4904c3.4375-0.19527 9.0625-0.19527 12.5 0s0.625 0.35504-6.25 0.35504-9.6875-0.15977-6.25-0.35504zm153.5-0.94893c0.9625-0.25153 2.5375-0.25153 3.5 0 0.9625 0.25153 0.175 0.45732-1.75 0.45732s-2.7125-0.2058-1.75-0.45732zm24.07-6.3107c0-3.575 0.1815-5.0375 0.40333-3.25 0.22182 1.7875 0.22182 4.7125 0 6.5-0.22183 1.7875-0.40333 0.325-0.40333-3.25zm-76.455-1.2664c0.42222-0.42152 13.113-0.64602 28.201-0.49888l27.434 0.26752-28.201 0.49888c-15.511 0.27438-27.856 0.154-27.434-0.26752zm72.54-9.9836-1.905-2.25 2.25 1.905c2.1144 1.7902 2.7052 2.595 1.905 2.595-0.18976 0-1.2023-1.0125-2.25-2.25zm-178.65-6.498c8.3875-0.16726 22.112-0.16726 30.5 0 8.3875 0.16726 1.525 0.30411-15.25 0.30411s-23.638-0.13685-15.25-0.30411zm116.44-2.9e-5c9.1773-0.16487 24.477-0.16516 34-6.55e-4 9.5227 0.16451 2.014 0.2994-16.686 0.29976-18.7 3.6e-4 -26.491-0.13424-17.314-0.29911z"
      fill="#ccc" />
    <path
      d="m109.75 140.34c0.6875-0.27741 1.8125-0.27741 2.5 0s0.125 0.50439-1.25 0.50439-1.9375-0.22698-1.25-0.50439zm-102.32-10.084 0.067564-7.7533 42.501-0.0612-41.918 0.60065-0.71855 14.967 0.067564-7.7533zm7.8176 7.0574c0.9625-0.25152 2.5375-0.25152 3.5 0 0.9625 0.25153 0.175 0.45733-1.75 0.45733s-2.7125-0.2058-1.75-0.45733zm38.512-1.0179c1.2439-0.23919 3.0439-0.23011 4 0.0202 0.95609 0.25029-0.06166 0.446-2.2617 0.4349-2.2-0.0111-2.9823-0.21589-1.7383-0.45508zm109.99-14.03c2.8875-0.202 7.6125-0.202 10.5 0s0.525 0.36728-5.25 0.36728-8.1375-0.16528-5.25-0.36728zm32.5-8.9521c0.9625-0.25152 2.5375-0.25152 3.5 0 0.9625 0.25153 0.175 0.45733-1.75 0.45733s-2.7125-0.2058-1.75-0.45733zm-167.5-13.034c1.7875-0.22182 4.7125-0.22182 6.5 0 1.7875 0.22183 0.325 0.40333-3.25 0.40333s-5.0375-0.1815-3.25-0.40333zm126.52 0.0304c0.97297-0.25354 2.323-0.23687 3 0.037 0.67703 0.27393-0.11903 0.48137-1.769 0.46099-1.65-0.0204-2.2039-0.2445-1.231-0.49804zm-116.02-9.0542c7.0125-0.1719 18.488-0.1719 25.5 0s1.275 0.31254-12.75 0.31254-19.762-0.14064-12.75-0.31254zm-32.25-7.6303c0-0.20766 0.7875-0.99516 1.75-1.75 1.5861-1.2439 1.6214-1.2085 0.37756 0.37756-1.3064 1.6657-2.1276 2.1955-2.1276 1.3724z"
      fill="#adadad" />
    <path
      d="m10.75 137.34c0.6875-0.27741 1.8125-0.27741 2.5 0s0.125 0.50439-1.25 0.50439-1.9375-0.22698-1.25-0.50439zm34.012-1.045c1.2439-0.23919 3.0439-0.23011 4 0.0202 0.95609 0.25029-0.06166 0.446-2.2617 0.4349-2.2-0.0111-2.9823-0.21589-1.7383-0.45508zm136.97-14.014c1.7752-0.22091 4.9252-0.22454 7-8e-3 2.0748 0.21648 0.6223 0.39722-3.2277 0.40166-3.85 4e-3 -5.5475-0.17268-3.7723-0.39359zm-23.978-9.9406c0.6875-0.27741 1.8125-0.27741 2.5 0s0.125 0.50439-1.25 0.50439-1.9375-0.22698-1.25-0.50439zm57.25-6.7153c0-0.20765 0.7875-0.99515 1.75-1.75 1.5861-1.2439 1.6214-1.2085 0.37756 0.37756-1.3064 1.6658-2.1276 2.1955-2.1276 1.3724zm-54.25-5.3282c1.2375-0.23836 3.2625-0.23836 4.5 0 1.2375 0.23835 0.225 0.43337-2.25 0.43337s-3.4875-0.19502-2.25-0.43337z"
      fill="#868686" />
    <path
      d="m66 137.2c0-0.43956 1.575-0.61533 3.5-0.39059 1.925 0.22473 3.5 0.58437 3.5 0.7992 0 0.21482-1.575 0.39059-3.5 0.39059s-3.5-0.35964-3.5-0.7992zm85.269 0.10621c0.97297-0.25354 2.323-0.23687 3 0.0371 0.67703 0.27393-0.11903 0.48137-1.769 0.46099-1.65-0.0204-2.2039-0.2445-1.231-0.49804zm-5.269-26.307c0-0.55 0.47656-1 1.059-1s0.7809 0.45 0.44098 1-0.81648 1-1.059 1-0.44098-0.45-0.44098-1z"
      fill="#f8820a" />
    <path
      d="m104.5 138.11c-2.2513-1.4151-5.9947-7.5241-15-24.479l-12-22.594-25.027-0.01702c-21.053-0.01431-25.38 0.23022-27.25 1.5397-2.7536 1.9287-2.9122 6.0038-0.28825 7.4081 1.1608 0.62124 10.507 1.0352 23.373 1.0352h21.438l-5.4303 17.224c-2.9867 9.4734-5.5509 17.345-5.6983 17.492-0.14739 0.14738-10.359 0.51807-22.692 0.82375-12.333 0.30568-23.662 0.74786-25.174 0.98263l-2.75 0.42686v-14.95h20.845c18.924 0 20.998-0.1685 22.5-1.8287 1.9442-2.1483 2.1484-5.2778 0.45499-6.9713-0.82841-0.82841-6.0152-1.2068-16.75-1.222-13.004-0.0184-16.222-0.32711-19.653-1.8854-5.8675-2.6646-9.1576-6.6649-10.532-12.805-1.5431-6.8951-0.073052-12.02 4.6332-16.152 6.3422-5.5685 10.471-6.1357 44.667-6.1357h30.803l2.9074 2.75c1.5991 1.5125 5.0517 6.8 7.6726 11.75 2.6209 4.95 6.5132 12.15 8.6497 16 2.1364 3.85 4.3934 8.0242 5.0155 9.2759 0.62208 1.2517 1.5559 2.1343 2.0752 1.9612 0.51928-0.1731 5.8339-9.0522 11.81-19.731 6.4167-11.466 11.795-19.932 13.134-20.676 1.6953-0.9414 10.845-1.2655 36.267-1.2847 33.677-0.02542 34.048-0.0032 39.079 2.3393 7.4171 3.4537 9.4211 6.4776 9.4211 14.216 0 5.6497-0.33248 6.709-3.0922 9.8521l-3.0922 3.5218 3.0922 2.6019c3.0193 2.5406 3.0922 2.8066 3.0922 11.29 0 10.261-0.91926 12.046-8.0741 15.671-4.8796 2.4727-5.183 2.4977-27.101 2.2316l-22.166-0.26912-4.4264-14.5 15.634-0.1175c20.286-0.15245 27.124-0.62899 28.783-2.006 1.9868-1.6489 1.646-5.6484-0.58307-6.8413-1.1344-0.60713-9.7146-1.0397-20.75-1.0462-10.349-6e-3 -20.443-0.28013-22.432-0.60906-3.3668-0.55686-3.7164-0.95964-5.0769-5.8476l-1.4611-5.2496 10.482-0.64137c5.7654-0.35276 16.889-0.64138 24.72-0.64138 15.121 0 15.451-0.10796 15.451-5.0466 0-3.5607-3.1141-3.9534-31.353-3.9534h-27.484l-1.9485 3.25c-1.0717 1.7875-4.3119 7.75-7.2004 13.25-13.418 25.549-15.324 28.718-18.404 30.596-3.9636 2.417-9.2746 2.4213-13.11 0.0107z"
      fill="#7e7e7e" />
    <path
      d="m74.154 137.75c-8.5539-1.1231-8.2631 0.90975-2.5638-17.923 3.4813-11.503 3.9608-12.489 5.209-10.707 1.127 1.609 1.1425 2.2703 0.08616 3.6697-1.0843 1.4364-1.0699 1.5124 0.09106 0.47919 1.1374-1.0123 2.1391 0.1701 5.7057 6.7347l4.3261 7.9626-1.7959 5.1959c-0.98776 2.8578-2.227 5.2761-2.754 5.3741-0.52691 0.098-4.2639-0.25589-8.3044-0.78641zm64.539 0.49909c-0.23567-0.4137-0.96687-3.0487-1.6249-5.8555l-1.1964-5.1033 5.2003-10.147c5.2839-10.31 6.6626-12.207 5.4971-7.5629-0.38858 1.5482-0.26487 2.3467 0.30865 1.9922 0.94665-0.58506 1.9506 2.092 6.0532 16.141 1.1592 3.9696 2.3259 7.7946 2.5927 8.5 0.34636 0.91569-0.80854 1.3183-4.0378 1.4077-2.4876 0.0689-6.2872 0.40733-8.4437 0.75216s-4.1136 0.28849-4.3493-0.1252z"
      fill="#fc7c00" />
  </g>
</svg>
