<?xml version="1.0" encoding="UTF-8"?>
<svg version="1.1" viewBox="0 0 375 134" xmlns="http://www.w3.org/2000/svg">
  <g transform="matrix(1.0841 0 0 1.0214 -15.72 -2.5118)">
    <path
      d="m28.011 133.11-2.4888-0.69731-4.6264-6.8651 0.58764-2.525 0.58764-2.525 5.9602-5.5h325.94l6.4316 5.7466v7.308l-5.4453 5.4454-324.45 0.30977zm9.5563-9.4151 0.60062-1.8026 2.8318 2.3502v1.7551l-3.5 0.232 4 0.97448 3.7922 3.2935-0.3961-1-0.3961-1-5-8.4846-1.0146-0.0154-5.4854 9.0815 0.04448 1.4185 3.9225-5 0.60062-1.8026zm17.667 3.9179 0.73469-1.1152-0.10069-3.5-0.10069-3.5-0.84587 4-0.99075 4.6216-6.4314-0.6216-0.6081-4-0.60809-4-0.14191 4.2822-0.1419 4.2822 4.5 1.7901 4-1.1242zm21.068-6.9163 2.1978-0.42653h-10l4.5 0.86674 0.3605 9.3609 0.74396-9.3746zm12.952 8.1553-1.1458-1.1458 1.1822-5.9108-1.3952-0.88346-1.3952-0.88347-7.5-0.03063v9h2v-8.1267l6.5 0.62672v4l-5.5-0.64313v2.1431l3.5 0.0636 1.9411 1.4682 1.9411 1.4682h1.0177l-1.1458-1.1458zm10.918-4.4029-2.9576-4.7519-5.3592 8.4896 0.91624 0.91624 4.5007-7.2822 0.84842 1.3385 0.84842 1.3385 0.01531 0.67668 0.01531 0.67667-3.5 0.91465 5.286 0.232 1.2611 3.2863 0.54153-0.54154 0.54153-0.54153-2.9576-4.7519zm15.544-2.2013-0.41659-2.75v11l0.83318-5.5zm5.4384 3.6887 2.2826-4.0613 2.6513 3.6226-4.5885 1.3006 5.382 0.1994 1.2361 2h1.8143l-6.074-9h-0.774l-5.0843 8.6757v1.3243h0.87203l2.2826-4.0613zm34.018-1.4874-2.9576-4.7519-5.2148 8.2608 0.0624 1.5397 4.5837-7.4538 2.3539 2.3538v1.4534l-3.5 0.91465 4.2551 0.232 2.5299 3.0483 0.84514-0.84514zm9.3233-3.4513h3.3862l1.1245 1.8195-1.2433 3.2401-3.5948-1.141-1.2863 2.0814h3.4606l3.6575 3.31v-2.192l-0.97952-0.60537-0.97952-0.60538 1.1694-1.8724 1.1694-1.8724-2.6246-3.1624h-7.7551l0.3605 10.5 0.74908-9.5zm30.759 6.855-1.1117-1.1117 2.2363-3.5809-2.6246-3.1624h-7.7551l0.17471 4.75 0.1747 4.75 0.38557-4.3068 0.38556-4.3068 7.3795 0.61354v4l-5.5-0.5757v2.0757h3.7551l2.5299 3.0483 0.54083-0.54083 0.54084-0.54083zm5.8535-1.8343 2.2365-3.9793 2.655 2.2035v1.7551l-3.5 0.232 4 0.97448 3.7922 3.2935-0.7922-2-5-8.4846-1.0146-0.016-5.4854 9.0815v0.91848h0.87203l2.2365-3.9793zm15.96 0.54615 3.9315 3.839-0.1681-5.453-0.16811-5.453-0.40037 3.8861-0.40038 3.8861-7.6462-7.4663-0.37123 4.6676-0.37123 4.6676 1.0256 1.0484 0.63696-7.4616zm47.739-5.3738 3.6929 0.30696v4l-5.5-0.5757v2.0757h3.3425l3.6575 3.31v-2.192l-0.97952-0.60537-0.97952-0.60538 1.1694-1.8724 1.1694-1.8724-2.6246-3.1624h-7.7551l0.3605 10.5 0.37687-4.807 0.37686-4.807zm25.5-2e-3 3.1928 0.30909v4l-4.5-0.62572v2.2586l5.2983-0.63284 1.0429-1.6662 1.0429-1.6662-2.6289-3.1676h-7.5537l-0.72702 9.141 0.51282 0.52237 0.51281 0.52237 0.3072-4.652 0.30721-4.652zm40.693 7.809v-1h-6v-8.118l-2 1.2361v7.7612l7.5 0.78452 0.5 0.33621zm6.8022-8.3207 1.6978-0.44727-9-0.1052 4.6539 1.8657-0.17826 3.2538-0.17825 3.2538 0.28156 1 0.28157 1 0.37196-4.6867 0.37195-4.6867 1.6978-0.44727zm-270.49 6.9426 0.52884-1.3782-1.1219-1.1218-1.1219-1.1219h-6.7667l0.823-2.5 7.8437-1.2859-9 0.28588-0.62324 4.379 8.6232 0.62102v2l-9 1.1996 9.286 0.30039zm42.49 0.65293-3.6953-0.389-0.38001-4.1929-0.38-4.1929-0.1747 4.75-0.17471 4.75 8.5-0.33621zm31.695-0.0131-3-0.43865-2.5-2.0679 0.0153-0.62755 0.0153-0.62756 1.7108-2.6997 6.7585-1.5956-6.3571-0.20472-3.1429 3.1429v3.4571l2.4 2.4 7.1-0.29966-3-0.43866zm91.32-1.5117-0.31955-2.25-7.5662-1-0.43376-2 9-1.1996-8.2551-0.30039-1.2801 1.5424-1.2801 1.5424 1.8152 1.7726 6.846 0.64259 0.3912 1.1926 0.39121 1.1926-9.6284 0.75433 10.639 0.3605zm7.1668-5.25h3.4863l0.67404 3.5h-5.0286l-1.2361 2h4.718l2.4-2.4v-3.386l-3.1636-1.214h-6.8364l0.14191 4.75 0.1419 4.75 0.6081-4 0.60809-4zm16.814 6.3 1.2-1.2v-3.4571l-3.1429-3.1429h-5.4571l-2.4 2.4v5.2667l0.66667 0.66666 0.66666 0.66667h7.2667zm-8.4905-1.4359-0.62776-1.6359 2.0363-3.2282h5.5641l2.102 3.3324-1.3144 1.5838-1.3145 1.5838h-5.8179zm29.995-5.6655 2.1956-0.42624-9-0.0404 3.5 0.91465 0.17471 4.1767 0.1747 4.1767 0.37975-4.1876 0.37974-4.1876 2.1956-0.42623zm23.696 4.3747v-3.9267l3.5-0.91465h-9l3.5 0.91465 0.11842 3.1767 0.11842 3.1767-0.23684 1.5h2zm12.451-1.0733 1.2447-1.5 0.72829-1.5 0.7283-1.5-1.9865 2.25-1.9865 2.25h-1.5505l-5.0329-4.5 5.404 6.6534 0.116 1.6733 0.116 1.6733 0.97448-4zm35.349 3.8 1.2-1.2v-3.4571l-3.1429-3.1429h-6.8571v9h7.6zm-6.8-3.3664v-3.5664l5.2983 0.63284 1.01 1.6141 1.01 1.6141-0.62776 1.6359-0.62776 1.6359h-6.0628zm-160.5-3.4336 2-0.85943h-9l4 1.7189h1zm-100.34-9.0449-3.3418-2.0374-3.3163-7.8974-3.5-0.02034v-2.8698l1.7657-4.6302-18.843 0.63904 0.57689-18.639 170-1.017-170.5-0.48305v-3l39.5-0.036146 20.593-39.931-53.593-0.53284v-3l14.563-0.58889-1.1999-1.9414-6.8588-2.8658-2.2987-5.045 3.4596-9.0589 5.3346-0.037613 27-3.9248 14.705-0.037613 17.295 5.7137 9.7688 2.3827 7.702 3.9292 1.6246 2.4794 1.6246 2.4794-0.57856 1.5077-0.57857 1.5077h-12.818l-2.4898 3h49.49l-1.1951-1.44-1.1951-1.44-4.2535-0.62007-1.887-3.2403-1.887-3.2403 3.4445-9.0193 5.2283-0.037613 27-3.9248 15.341-0.037613 16.659 5.7549 9.7451 2.3356 9.5162 4.8222 0.64995 2.5896 0.64996 2.5896-1.1792 1.908h-12.637l-2.4898 3h21.245v-2.8449l7-2.3102v-8.6997l5.2697-4.1452h47.476l8.4143 9.1284 6.8584 14.442 2.7114 13.93-0.1147 20.249-0.11471 20.249 1.3652 0.0022 1.3 4.096-1.2051 1.452-1.2051 1.4519h-33.731l-0.64839 4.0548-0.64838 4.0548-4.243 6.3905-8.9076 4.5h-8.1524l-8.9076-4.5-4.5472-6.8418-0.6043-3.7791-0.60429-3.7791-28.786-0.60007 0.51711 1.3429 0.5171 1.3429 0.60414 2.4071 0.60415 2.4071h-3.815l-2.4069 6.6562-5.156 4.8438h-10.993l-6.8463-7.4706v-4.0294h-4v-2.8698l0.93299-2.454 0.933-2.454-3.7091 0.96994 0.55238 3.4039 0.55237 3.4039h-4.2617v3.1914l-1.7061 2.8881-1.7061 2.8881-6.3901 3.0323-5.6977-8e-3 -6.6837-4.0748-1.6582-3.9487-1.6582-3.9487-1.8613-0.0102-1.8613-0.01 0.6566-3.5 0.65661-3.5h-46.181l0.65661 3.5 0.6566 3.5h-4.0637l-1.2561 5.7189-6.0342 5.7811h-11.022l-3.4232-3.7349-3.4232-3.7353v-4.0294h-4.2617l1.1359-7h-2.7485l1.1359 7h-4.2617v3.1914l-3.4121 5.7763-6.3901 3.0323-5.6977-0.00748zm1.3418-14.955 1.81-2h-1l-3.62 4h1zm130.05-5.9117-1.5057-2.9117-5.301-4.1698-7.302-1.9662-6.9369 2-3 2.4921-4 4.92 7.5367-6.4238 5.0841-1.276 7.7229 1.0359 4.9875 3.7113 3.2819 5.5h0.93829zm13.524-5.6242 2.8312-1.4641h7.1986l5.7247 2.9604 5.324 6.5396-3.0458-6.203-5.356-3.5094-6.1359-1.7598-8.0614 2.1707-6.5489 6.9438v2.011l5.2382-6.2253zm-144.39-0.3419 2.1843-1.1222 7.6315 0.0074 6.9646 4.2457 2.7543 3.2468-2.949-5-6.5255-3.8333h-8.6343l-6.8573 4.6987-1.2515 2.0673-1.2515 2.0674 5.7502-5.2556zm34 0 2.1843-1.1222h7.263l4.3685 2.2444 5.7502 5.2556-2.7502-4.6136-6.7754-4.2197h-8.4691l-6.5255 3.8333-3.1245 5 5.8945-5.2556zm223.14 0.59428 1.0652-1.2835-1.3856-2.1084-4.5-1.1373v5.8128h3.7551zm-138.27-26.466 6.7042-12.75 7.8826-14.5-98.64 0.045458-20.44 39.955h97.789zm-50.186 4.9847-1.133-0.73469-8.8012-16h-18.433l-0.5 2 16 0.67144 0.70377 0.69899-3.4496 10.63-1.2542 1.2436-18.5 1.2346v-5.8973l16.013-0.58088 0.48672-2-11-0.51846-4.4636-1.0105-1.5697-3.0355-1.5697-3.0355 0.62239-1.961 0.6224-1.961 5.7589-2.9781 23.599 0.03062 2.1667 1.4694 3.306 6.25 3.306 6.25 1.2214-0.06596 8.0271-13.434 27.507-0.55666 5.1695 5.1695-0.6989 2.1936-0.69891 2.1936 0.1126 3 1.2659 6.2098-5.5464 4.3628-16.999-0.57259-1.4451-5.4222 15.82-0.57775-0.00118-2-16.798-0.57475-0.59321-2.2126-0.59326-2.2126-0.01366-0.75-0.01365-0.75h18v-2h-20.615l-8.5285 16.006-3.7252 1.9937-1.6315-0.030626zm-13.998-1.9847 0.50363-1.75 2.4441-8.5 1.1834 0.0164 2.1598 3.9787 2.1598 3.9787-0.52641 2.013-0.52642 2.0131h-7.9015zm25.303-0.39752-0.56159-2.1475 4.3899-7.6896 1.0852-0.0154 2.2794 8.5 1.3494 3.5h-7.9807l-0.56159-2.1475zm65.328 7.6475 2.3486-2.5h39.651v-35.033l-52.186 0.53321-19.779 38-0.0176 0.75-0.01753 0.75h27.651zm49-22.5v-20h-3v40h3zm57.683-1.1875-0.52522-1.3125-0.0789 1.9167-0.079 1.9167 1.2083-1.2083-0.52522-1.3125zm-47.942-24.023-0.35605-6.2892-8e-3 24 0.7193-11.422-0.35606-6.2892zm-158.74 4.7108-1.2449-1.5h-39.51l-2.4898 3h44.49zm111 0-1.2449-1.5h-39.51l-2.4898 3h44.49zm-154.61-2.75 1.0957-1.75-2.1915-3.5-4.9695-0.60112-2.6229 3.1603 2.311 5.072 5.2814-0.63121zm52.999 0 1.097-1.75-2.194-3.5-4.6837-0.68994-2.6121 3.5722v1.4749l1.6246 1.6246 1.6246 1.6246 4.0464-0.60643zm57.607 0.25 1.0704-2-2.2049-4.1199-5.3655 0.61986-0.65816 4.6455 1.0954 2.8545h4.9924zm53.393-0.25 1.097-1.75-2.194-3.5-4.6837-0.68994-2.6121 3.5722v1.4749l1.6246 1.6246 1.6246 1.6246 4.0464-0.60643zm-129.39-12.75v-1l3.5-0.12677-4.3642-1.7586-11.939-1.3508-2.2082 4.126 9.5115 0.74956 5.5 0.3605zm8 0.61663v-0.38337l-4.0028-1.0467 0.5604 0.90674 0.56039 0.90674h2.882zm103-0.61663v-1l3.5-0.12677-4.3642-1.7586-11.939-1.3508-2.2082 4.126 9.5115 0.74956 5.5 0.3605zm8 0.61663v-0.38337l-4.0028-1.0467 0.5604 0.90674 0.56039 0.90674h2.882zm-135.87-3.2828 1.3724-1.6662-8 1.3104-4 0.22137 5 1.6013 4.2551 0.19936zm111.29 0.032084 0.62706-1.6341-7.5402 1.2462-4 0.22137 5 1.6013 5.286 0.19936zm-194.41 45.732-4.5-0.62888 21.811-1.4685h14.856l-0.8306 2.5-26.836 0.2263zm16.33-11.046-15.17-0.55119-1.4926-1.5h10.017l27.559-1.3217-2.3129 4.3217-3.4296-0.39762zm-1.1047-11.065-13.275-0.70254-1.2833-1.2833h19.022l21.552-1.3187-2.3113 4.3187-10.43-0.31163z"
      fill="#fad4af" />
    <path
      d="m28.011 133.11-2.4888-0.69731-4.6264-6.8651 0.58764-2.525 0.58764-2.525 5.9602-5.5h325.94l6.4316 5.7466v7.308l-5.4453 5.4454-324.45 0.30977zm9.5563-9.4151 0.60062-1.8026 2.8318 2.3502v1.7551l-3.5 0.232 4 0.97448 3.7922 3.2935-0.3961-1-0.3961-1-5-8.4846-1.0146-0.0154-5.4854 9.0815 0.04448 1.4185 3.9225-5 0.60062-1.8026zm17.667 3.9179 0.73469-1.1152-0.10069-3.5-0.10069-3.5-0.84587 4-0.99075 4.6216-6.4314-0.6216-0.6081-4-0.60809-4-0.14191 4.2822-0.1419 4.2822 4.5 1.7901 4-1.1242zm21.068-6.9163 2.1978-0.42653h-10l4.5 0.86674 0.3605 9.3609 0.74396-9.3746zm12.952 8.1553-1.1458-1.1458 1.1822-5.9108-1.3952-0.88346-1.3952-0.88347-7.5-0.03063v9h2v-8.1267l6.5 0.62672v4l-5.5-0.64313v2.1431l3.5 0.0636 1.9411 1.4682 1.9411 1.4682h1.0177l-1.1458-1.1458zm10.918-4.4029-2.9576-4.7519-5.3592 8.4896 0.91624 0.91624 4.5007-7.2822 0.84842 1.3385 0.84842 1.3385 0.01531 0.67668 0.01531 0.67667-3.5 0.91465 5.286 0.232 1.2611 3.2863 0.54153-0.54154 0.54153-0.54153-2.9576-4.7519zm15.544-2.2013-0.41659-2.75v11l0.83318-5.5zm5.4384 3.6887 2.2826-4.0613 2.6513 3.6226-4.5885 1.3006 5.382 0.1994 1.2361 2h1.8143l-6.074-9h-0.774l-5.0843 8.6757v1.3243h0.87203l2.2826-4.0613zm34.018-1.4874-2.9576-4.7519-5.2148 8.2608 0.0624 1.5397 4.5837-7.4538 2.3539 2.3538v1.4534l-3.5 0.91465 4.2551 0.232 2.5299 3.0483 0.84514-0.84514zm9.3233-3.4513h3.3862l1.1245 1.8195-1.2433 3.2401-3.5948-1.141-1.2863 2.0814h3.4606l3.6575 3.31v-2.192l-0.97952-0.60537-0.97952-0.60538 1.1694-1.8724 1.1694-1.8724-2.6246-3.1624h-7.7551l0.3605 10.5 0.74908-9.5zm30.759 6.855-1.1117-1.1117 2.2363-3.5809-2.6246-3.1624h-7.7551l0.17471 4.75 0.1747 4.75 0.38557-4.3068 0.38556-4.3068 7.3795 0.61354v4l-5.5-0.5757v2.0757h3.7551l2.5299 3.0483 0.54083-0.54083 0.54084-0.54083zm5.8535-1.8343 2.2365-3.9793 2.655 2.2035v1.7551l-3.5 0.232 4 0.97448 3.7922 3.2935-0.7922-2-5-8.4846-1.0146-0.016-5.4854 9.0815v0.91848h0.87203l2.2365-3.9793zm15.96 0.54615 3.9315 3.839-0.1681-5.453-0.16811-5.453-0.40037 3.8861-0.40038 3.8861-7.6462-7.4663-0.37123 4.6676-0.37123 4.6676 1.0256 1.0484 0.63696-7.4616zm47.739-5.3738 3.6929 0.30696v4l-5.5-0.5757v2.0757h3.3425l3.6575 3.31v-2.192l-0.97952-0.60537-0.97952-0.60538 1.1694-1.8724 1.1694-1.8724-2.6246-3.1624h-7.7551l0.3605 10.5 0.37687-4.807 0.37686-4.807zm25.5-2e-3 3.1928 0.30909v4l-4.5-0.62572v2.2586l5.2983-0.63284 1.0429-1.6662 1.0429-1.6662-2.6289-3.1676h-7.5537l-0.72702 9.141 0.51282 0.52237 0.51281 0.52237 0.3072-4.652 0.30721-4.652zm40.693 7.809v-1h-6v-8.118l-2 1.2361v7.7612l7.5 0.78452 0.5 0.33621zm6.8022-8.3207 1.6978-0.44727-9-0.1052 4.6539 1.8657-0.17826 3.2538-0.17825 3.2538 0.28156 1 0.28157 1 0.37196-4.6867 0.37195-4.6867 1.6978-0.44727zm-270.49 6.9426 0.52884-1.3782-1.1219-1.1218-1.1219-1.1219h-6.7667l0.823-2.5 7.8437-1.2859-9 0.28588-0.62324 4.379 8.6232 0.62102v2l-9 1.1996 9.286 0.30039zm42.49 0.65293-3.6953-0.389-0.38001-4.1929-0.38-4.1929-0.1747 4.75-0.17471 4.75 8.5-0.33621zm31.695-0.0131-3-0.43865-2.5-2.0679 0.0153-0.62755 0.0153-0.62756 1.7108-2.6997 6.7585-1.5956-6.3571-0.20472-3.1429 3.1429v3.4571l2.4 2.4 7.1-0.29966-3-0.43866zm91.32-1.5117-0.31955-2.25-7.5662-1-0.43376-2 9-1.1996-8.2551-0.30039-1.2801 1.5424-1.2801 1.5424 1.8152 1.7726 6.846 0.64259 0.3912 1.1926 0.39121 1.1926-9.6284 0.75433 10.639 0.3605zm7.1668-5.25h3.4863l0.67404 3.5h-5.0286l-1.2361 2h4.718l2.4-2.4v-3.386l-3.1636-1.214h-6.8364l0.14191 4.75 0.1419 4.75 0.6081-4 0.60809-4zm16.814 6.3 1.2-1.2v-3.4571l-3.1429-3.1429h-5.4571l-2.4 2.4v5.2667l0.66667 0.66666 0.66666 0.66667h7.2667zm-8.4905-1.4359-0.62776-1.6359 2.0363-3.2282h5.5641l2.102 3.3324-1.3144 1.5838-1.3145 1.5838h-5.8179zm29.995-5.6655 2.1956-0.42624-9-0.0404 3.5 0.91465 0.17471 4.1767 0.1747 4.1767 0.37975-4.1876 0.37974-4.1876 2.1956-0.42623zm23.696 4.3747v-3.9267l3.5-0.91465h-9l3.5 0.91465 0.11842 3.1767 0.11842 3.1767-0.23684 1.5h2zm12.451-1.0733 1.2447-1.5 0.72829-1.5 0.7283-1.5-1.9865 2.25-1.9865 2.25h-1.5505l-5.0329-4.5 5.404 6.6534 0.116 1.6733 0.116 1.6733 0.97448-4zm35.349 3.8 1.2-1.2v-3.4571l-3.1429-3.1429h-6.8571v9h7.6zm-6.8-3.3664v-3.5664l5.2983 0.63284 1.01 1.6141 1.01 1.6141-0.62776 1.6359-0.62776 1.6359h-6.0628zm-160.5-3.4336 2-0.85943h-9l4 1.7189h1zm-100.34-9.0449-3.3418-2.0374-3.3163-7.8974-3.5-0.02034v-3.0642l3.0955-7.4085 4.4045-4.7173 5.4007-2.81h7.327l7.3067 4.1066 4.5504 6.6409 1.1769 7.2525h-4.2617v3.1914l-3.4121 5.7763-6.3901 3.0323-5.6977-0.00748zm1.3418-14.955 1.81-2h-1l-3.62 4h1zm33.918 16.085-2.0816-0.89553-5.3369-6.3425v-3.8466h-4v-3.8698l2.1272-5.6302 5.3728-5.6786 5.4007-2.8214h7.1986l5.4007 2.81 4.4045 4.7173 3.0955 7.4085v3.0642h-3.8411l-1.2561 5.7189-5.7508 5.5096-8.652 0.75159zm75.74-1.1295-3.3418-2.0374-1.6582-3.9487-1.6582-3.9487-3.5-0.02034v-2.8698l1.7623-4.6302-46.605 0.56974-0.64756-2.0403-0.64755-2.0403-5.1-6.061-5.6624-2.9282h-7.2971l-6.7475 3.2019-6.1588 9.2981h-0.82716l-5.799-9.1441-7.072-3.3559h-7.2971l-5.6624 2.9282-5.1 6.061-1.273 4.0108h-16.865v-18h169v-2h-169v-2.9577l39.42-0.54228 19.534-38 0.0232-0.75 0.02317-0.75h-53v-3.1948l19.5 0.432 50.77-0.23721-5.0852-4h-41.185v1.7574l-5.6718 2.3493-5.3282-2.4277v-1.679h-2.7303l-5.2697-4.1452v-4.9191l2.8979-6.9358 8.6021-4.729e-4 24-3.9581 12.404-0.041468 17.596 6.1087 11.563 2.8828 7.905 4.0328 0.61014 2.431 0.61015 2.431-1.3063 2.1137h-10.678l-8.7042 5.1913 3.6636-1.1913h54.106l-4.7697-3.5796-5.5295-2.3909-2.3428-5.142 1.5233-4.1937 1.5233-4.1937 8.8256-0.57589 24.543-3.9241h11.86l17.596 6.1181 12 2.9431 8 4.5024v5.9364l-11.47 0.59891-8.53 5.0924 3.6636-1.1913h23.836v-4.05l6-1.2v-9.6048l5.2697-4.1452h47.476l8.4143 9.1284 6.8584 14.442 2.7114 13.93-0.1147 20.249-0.11471 20.249 1.3652 0.0022 1.3 4.096-1.2051 1.452-1.2051 1.4519h-33.731l-0.64839 4.0548-0.64838 4.0548-4.243 6.3905-8.9076 4.5h-8.1524l-8.9076-4.5-4.5472-6.8418-1.2246-7.6582h-27.502l-1.2446-3.0046-1.2445-3.0046-6.7902-5.9619-5.0841-1.276-8.1211 1.0893-6.6242 6.4204-2.3765 5.7374h-1.5673l-5.1723-8.8259-6.7538-4.1741h-8.3632l-5.6624 2.9282-5.2382 6.2253v1.9161l5.9908-6.8231 6.0423-2.5028 8.7295 0.98394 4.9888 3.763 4.4097 6.7271 1.1006 6.7823h-4.2617v3.1914l-1.7061 2.8881-1.7061 2.8881-6.3901 3.0323-5.6977-8e-3 -3.3418-2.0374zm146.66-26.239 1.0652-1.2835-1.3856-2.1084-4.3079-1.0871-0.42288 2.8813-0.42287 2.8813h4.4087zm-133.99-33.733 10.328-20.002-99.342 0.51876-19.78 38-0.01757 0.75-0.017559 0.75 98.5-0.0152 10.328-20.002zm-54.461 12.252-1.133-0.73469-8.8012-16h-18.433l-0.5 2 16 0.67144 0.70377 0.69899-3.4496 10.63-1.2542 1.2436-18.5 1.2346v-5.8973l16.013-0.58088 0.48672-2-11-0.51846-4.4636-1.0105-1.5697-3.0355-1.5697-3.0355 0.62239-1.961 0.6224-1.961 5.7589-2.9781 23.599 0.03062 2.1667 1.4694 3.306 6.25 3.306 6.25 1.2214-0.06596 8.0271-13.434 27.507-0.55666 5.1695 5.1695-0.6989 2.1936-0.69891 2.1936 0.1126 3 1.2659 6.2098-5.5464 4.3628-16.999-0.57259-1.4451-5.4222 15.82-0.57775-0.00118-2-16.798-0.57475-0.59321-2.2126-0.59326-2.2126-0.01366-0.75-0.01365-0.75h18v-2h-20.615l-8.5285 16.006-3.7252 1.9937-1.6315-0.030626zm-13.065-2.9847 0.55224-2.75 2.3144-6 3.9327 7.6048-0.61816 1.9476-0.61815 1.9476h-6.1152zm25.364 2.0833-0.66667-0.66667 7e-3 -2.0833 7e-3 -2.0833 3.8861-5.8952 1.846 4.8952 0.70685 3.25 0.70686 3.25h-5.8256l-0.66666-0.66667zm65.333 6.1667 2.3486-2.5h39.651v-35l-53.5 0.02693-20.632 39.973h29.783zm47.664-43.169-0.3776-0.3776-3.2863 1.2611v39.639l3.5 0.67536 0.54146-40.821zm58.019 19.482-0.52522-1.3125-0.0789 1.9167-0.079 1.9167 1.2083-1.2083-0.52522-1.3125zm-47.942-24.023-0.35605-6.2892-8e-3 24 0.7193-11.422-0.35606-6.2892zm-68.025 7.2108h24.553l-5.0852-4h-40.096l-7.5888 5.2933 3.6636-1.2933zm-133.91-7.2962 0.30993-2.5693-4.3728-2.3403-4.747 2.1629v4.9295l4.4072 3.087 4.0928-2.7004zm51.256 4.261 1.9343-1.0352v-5.9725l-4.9919-2.2744-4.0081 3.6273v3.5766l4.445 3.1134h0.68647zm59.744-4.261 0.30993-2.5693-4.1954-2.2453-3.9198 1.2441-1.3062 5.2041 4.5888 3.7158 4.2127-2.7801zm52.991 0.60311 0.30106-2.9773-3.0762-2.553-4.9955 1.2538-0.66598 2.6535-0.66599 2.6535 4.399 3.5621 4.4025-1.6153zm-125.92-11.37 2.2232 1.1898 3.3952-0.65561-11.678-4.4708h-11.822l-0.3 2-0.2 2.5 14 1 2.1583-2.7532zm107.92 0.44972 0.90305-1.6137 4.3981 2.3538 3.3952-0.65561-11.678-4.4708h-11.822l-0.3 2-0.2 2.5 13 1.1548 1.4006 0.3452zm-128.8-0.80455v-0.41821l1.214-3.1636h-5.964l-6.25 1.25v1.6293l7.5 0.78452 3.5 0.33621zm111 0v-0.41821l1.214-3.1636h-5.964l-6.25 1.25v1.6293l7.5 0.78452 3.5 0.33621zm15.418 102.5-2.0816-0.89553-5.3369-6.3425v-3.8466h-4v-3.0642l3.0955-7.4085 4.4045-4.7173 5.4007-2.81h7.1986l5.7973 2.9979 4.8272 6.5021 1.1381 3.3992 1.1381 3.3992v1.7016h-3.5982l-2.4069 6.6562-4.8703 4.5754-8.6245 0.74849zm-209.42-58.987-4.5-0.62888 21.811-1.4685h14.856l-0.8306 2.5-26.836 0.2263zm16.33-11.046-15.17-0.55119-1.4926-1.5h10.017l27.559-1.3217-2.3129 4.3217-3.4296-0.39762zm-1.1047-11.065-13.275-0.70254-1.2833-1.2833h19.022l21.552-1.3187-2.3113 4.3187-10.43-0.31163z"
      fill="#ccc" />
    <path
      d="m25.201 130.97-2.1765-2.0277-1.2508-4.9835 1.2856-3.1036 1.2856-3.1036 6.3634-2.6588 320.94-0.016 6.7334 3.4205 0.90719 2.7929 0.90719 2.7929-0.62308 2.4825-0.62307 2.4825-1.9746 1.9746-1.9746 1.9749h-327.62zm11.214-4.4436 1.8694-3.4713 1.716 1.0606v1.7353l-3.5 0.91465 4.7795 0.232 2.557 3.4969 0.66992-0.66993 0.66992-0.66992-5.3664-9.157h-1.7256l-5.0843 8.6757v1.3243h1.5452zm18.385 2.2713 1.2-1.2v-7.6h-1.8793l-0.62073 7.5h-6l-0.62073-7.5h-1.8793v6.8571l3.1429 3.1429h5.4571zm12.048 0.31486 1.3484-0.85451-0.71316-3.7604-6.9836-0.64259-1.9-1.8574h8.4v-2h-8.786l-1.129 2.9421 3.1679 3.1679 5.0726-0.61 0.84117 2.5h-9.2847l1.2361 2 7.382-0.0306 1.3484-0.85451zm9.2091-7.1149h1.9425v-2h-9v2h3v6.6667l0.75 0.76047 0.75 0.76048 0.615-8.1876zm4.9425 4v-4h7v3h-6v2h3.3425l3.6697 3.3211 1.3544-1.3544-2.2233-2.2233 2.2363-3.5809-2.6246-3.1624h-8.7551v10h2zm13.902 0.44148 2.0996-3.5585 1.9984 1.2351v1.882l-3.5 0.232 4 0.97448 1.7561 1.5573 1.7561 1.5573 0.86788-0.86788-2.9419-4.7266-2.9419-4.7266h-1.5109l-5.4854 9.0815v0.91848h1.8024zm18.098 2.5585v-1h-6v-8h-2v10h8zm3-4v-5h-2v10h2zm4.129 3.165 1.146-1.835 5.225 0.9916 2.3365 3.1753 0.62917-0.62918 0.62918-0.62917-5.5803-9.2385h-1.4895l-2.3329 3.75-2.333 3.75-0.73861 1.25-0.73862 1.25h2.1011zm2.0626-3.24 0.35833-1.075h1.9l0.35833 1.075 0.35834 1.075h-3.3333zm22.808 4.1354v-0.93964l-7.5-0.62073v-5l6-0.65389 0.95-0.92306 0.95-0.92305h-8l-2.4 2.4v4.4571l3.1429 3.1429h6.8571zm3.6384-0.56037 0.57561-1.5h5.6866l0.97469 1.7417 0.97468 1.7417 1.393-1.393-5.3273-9.0903h-1.7256l-5.19 8.8561v1.1439h2.0628zm2-4 0.57561-1.5h1.572l0.57561 1.5 0.5756 1.5h-3.8745zm13.919-2.5h3.4425v3h-5v2h4.0628l1.1512 3h2.904l-1.595-2.5-0.023-7-9.5-0.60958 0.17471 5.3048 0.1747 5.3048 0.3828-4.25 0.38279-4.25h3.4425zm16.442 4.1166v-3.8834l3.8955-1.0187 0.30225 4.1427 0.30226 4.1427 1-0.22911 1-0.2291 0.31037-3.5209 0.31036-3.5209h5.8793v3h-5v2h3.786l0.57561 1.5 0.5756 1.5h3.1808l-1.595-2.5-0.023-7-20.614-0.49285 1.2316 1.9928h2.882v8h2v-3.8834zm21.995-2.4256 5e-3 -0.80901 2 1.2361v1.7353l-3.5 0.91465 4.7795 0.232 1.2785 1.7484 1.2785 1.7484 0.70258-0.70259 0.70259-0.70259-5.7416-9.0881-1.4157-4e-3 -5.0843 8.6757 0.072 1.8243 4.9181-6 5e-3 -0.80902zm10.005 2.6061v-3.703l7.626 7.4466 0.687-0.68701 0.68701-0.687v-8.6667h-2v6.3923l-3.2976-3.1962-3.2976-3.1962h-2.4048v10h2zm19.816 0.45295 0.31642-2.75h-8.1328v-2h8v-2.1096l-9.5 0.60958-0.60494 4.2393 4.6049 1.2334 4.618 0.0273-1.2361 2h-7.882v2.1096l9.5-0.60958 0.31642-2.75zm4.1836-0.81336v-4.0634l6.5 0.62672-0.43782 2-5.0622 0.63284v1.9939l6.5-0.62672v-6l-9.5-0.60958v10.11h2zm19.066 3.0282 1.9343-1.0352v-5.6847l-2.8604-2.3739-7.6032 0.62905-1.9012 5.4394 3.6748 4.0606h4.8215zm-7.0552-2.4521-1.2343-1.4873 0.58049-1.5127 0.58049-1.5127h5.6628l2.3064 2.3064-0.98838 1.8468-0.98838 1.8468h-4.6847zm12.989-1.1351v-3.5043l6.5 0.62672-0.43782 2-5.0622 0.63284 0.016 1.3672 5.4844 2.6545 2.8281 1.1854-1.805-2.8399-0.023-7-9.5-0.60958v10.228l2-1.2361v-3.5044zm15 0.62238v-4h3v-2h-9.118l1.2361 2h2.882v8h2zm10 0v-4h7v3h-6v2l5.5-0.0306 2.7707-1.7547-0.65439-2.6073-0.6544-2.6073h-9.9619v10h2v-4zm15 0.11663v-3.8834l4.4462-1.1627 4.5538 4.2781v4.6514h2v-3.3112l5.1018-6.6888h-2.6207l-1.3145 2.1048-1.3145 2.1048-4.5898-4.3119-12.762 0.73145 4.5 1.604v7.7667h2zm29.5 2.8834 0.61803-1h-7.118v-8h-2v10h7.882zm4.5-3v-4h4v-2h-9v2h3v8h2zm14.051 1.9488 2.0512-2.0512-1.3719-4.3977-2.2304-1.4694-3.75-0.0153-3.75-0.01533v10h7zm-7.0512-2.9488v-3h5.786l1.2485 3.2535-2.2794 2.7465h-4.7551zm-259.35-18.829-1.655-1.8287v-6.0325l3.6575-3.31h6.1974l4.2582 5.4134-1.2225 5.0866-3.2728 2.5h-6.3078zm33.384-0.35982-2.039-2.1886v-3.5114l4.6118-5.3615h5.5826l4.0556 4.0556v5.2607l-1.78 1.9669-1.78 1.9669h-6.6121zm77.616 0.35982-1.655-1.8287v-6.0325l3.8129-3.4506 6.4893 0.64067 3.9088 5.2596-0.67104 2.1143-0.67104 2.1142-3.0118 3.0118h-6.5472zm33.418-0.80612-2.0726-2.6349v-2.4606l4.1452-5.2697h6.7414l1.5567 2.2225 1.5567 2.2225v5.245l-3.6575 3.31h-6.1974zm62.703 0.0761-2.7249-1.4787-1.0251-1.9155-1.0251-1.9155v-6.2224l4.8278-4.8278 5.5523-1.3935 7.0973 3.8122 2.6658 5.5708-1.7973 5.4292-6.6416 4.5-4.2042-0.08-2.7249-1.4787zm-217.77-6.1912 0.0051-2.75 4.6056-7.608 5.8841-3.8788 10-0.0058 6.4029 3.9041 3.4144 6.5884 1.4721 6.5h-3.5668l-0.64529-3.4397-0.6453-3.4397-5.9212-4.9824-4.1847-1.3282-6.6829 1.2537-6.1562 5.7507-0.61855 3.0928-0.61853 3.0929h-2.75l0.0051-2.75zm33.942-0.5 0.73605-3.25 3.4144-6.5884 6.4029-3.9041 9.7639-0.0074 6.2361 3.8619 3.7709 6.4053 0.75925 3.3664 0.75926 3.3664h-3.4728l-2.3647-7.8927-5.1548-4.0547-7.0196-1.3169-6.7912 3.2385-3.9788 6.5258-4e-3 1.75-4e-3 1.75h-3.7894l0.73605-3.25zm77.053 1.2179v-2.0321l1.351-3.2335 1.351-3.2335 7.3675-6.4688h10.635l6.6876 4.5068 1.705 2.9966 1.705 2.9966 0.67855 3.25 0.67854 3.25h-3.9363l-1.2532-6.6801-4.4694-4.0699-4.3685-2.2499h-4.3292l-6.6851 3.1723-3.1361 4.7863-0.41724 5.0414h-3.5638zm34.016-0.71788 0.0165-2.75 4.4682-7.8885 6.469-3.7781h9.0241l7.0679 4.3682 1.9689 3.8594 1.9689 3.8594v5.0797h-2.6834l-2.3647-7.8927-5.1548-4.0547-6.4738-1.2145-7.2795 3.0416-4.0363 6.6204-8e-3 3.5h-3l0.0164-2.75zm-162.02-13.25v-9h169v-2h-169v-2.9577l39.42-0.54228 19.534-38 0.0232-0.75 0.02317-0.75h-53v-3.1948l19.5 0.432 50.77-0.23721-5.0852-4h-41.185v1.679l-5.3282 2.4277-5.6718-2.3493v-1.7574h-2.7303l-5.2697-4.1452v-4.9191l2.8979-6.9358 8.6021-4.729e-4 24-3.9581 12.404-0.041468 17.596 6.1087 11.563 2.8828 7.905 4.0328 0.61014 2.431 0.61015 2.431-1.3063 2.1137h-10.678l-8.7042 5.1913 3.6636-1.1913h54.106l-4.7697-3.5796-5.5295-2.3909-2.3428-5.142 1.5233-4.1937 1.5233-4.1937 8.8256-0.57589 24.543-3.9241h11.86l17.596 6.1181 12 2.9431 8 4.5024v5.9364l-11.47 0.59891-8.53 5.0924 3.6636-1.1913h23.836v-3.786l3.1636-1.214h2.8364v1.8652l-4 1.2696v39.632l4 1.046v5.1872h28.064l6.5291 2.7281 5.4066 6.4254v5.8465h30.93l1.1618 2.1708 1.1618 2.1708-3.6355 2.6583h-33.247l-3.2433-6.8012-7.2714-5.5462-10.632-0.88166-7.192 2.3736-7.0322 8.2155v2.64h-28.757l-1.2446-3.0046-1.2445-3.0046-6.7902-5.9619-5.0841-1.276-8.1211 1.0893-6.6242 6.4204-2.3765 5.7374h-1.5673l-5.1723-8.8259-6.7538-4.1741h-8.3632l-5.4007 2.81-4.3668 4.69-2.0837 5.5h-45.915l-1.273-4.0108-5.1-6.061-5.6624-2.9282h-7.2971l-6.7475 3.2019-6.1588 9.2981h-0.82716l-5.799-9.1441-7.072-3.3559h-7.2971l-5.6624 2.9282-5.1 6.061-1.273 4.0108h-16.865zm149.83-34.017 10.328-20.002-99.342 0.51876-19.78 38-0.01757 0.75-0.017559 0.75 98.5-0.0152 10.328-20.002zm-53.57 12.358-1.2415-0.50156-9.1789-16.839h-19.838v3h15.667l1.1511 1.1511-4.0014 11.849h-18.816v-4.9191l16.5-0.58088v-3l-13.955-0.60175-1.7725-1.6041-1.7725-1.6041v-5.38l4.1818-3.7844 21.803-0.74626 4.913 1.2331 7.3503 13.988 1.2523-0.0134 7.5003-13.773 3.1633-1.2139h22.742l5.1421 2.3429 0.62232 2.4795 0.62231 2.4795-2.3238 3.7209 1.4815 2.261 1.4815 2.261-1.186 4.5353-5.6465 2.9199h-14.885l-1.214-3.1636v-2.8364h16v-2.742l-17.802-1.3926-0.9919-3.793 18.294-0.57232v-2l-21.324-0.56587-8.451 15.566-3.1077 2.5-1.1177-0.1579zm-13.956-3.0905 0.55224-2.75 2.3144-6 3.9327 7.6048-0.61816 1.9476-0.61815 1.9476h-6.1152zm25.364 2.0833-0.66667-0.66667 7e-3 -2.0833 7e-3 -2.0833 3.8861-5.8952 1.846 4.8952 0.70685 3.25 0.70686 3.25h-5.8256l-0.66666-0.66667zm65.333 6.1667 2.3486-2.5h39.651v-35l-53.5 0.02693-20.632 39.973h29.783zm-10.283-40.5h24.553l-5.0852-4h-40.096l-7.5888 5.2933 3.6636-1.2933zm-133.91-7.2962 0.30993-2.5693-4.3728-2.3403-4.747 2.1629v4.9295l4.4072 3.087 4.0928-2.7004zm51.256 4.261 1.9343-1.0352v-5.9725l-4.9919-2.2744-4.0081 3.6273v3.5766l4.445 3.1134h0.68647zm59.744-4.261 0.30993-2.5693-4.1954-2.2453-3.9198 1.2441-1.3062 5.2041 4.5888 3.7158 4.2127-2.7801zm52.991 0.60311 0.30106-2.9773-3.0762-2.553-4.9955 1.2538-0.66598 2.6535-0.66599 2.6535 4.399 3.5621 4.4025-1.6153zm-125.92-11.37 2.2232 1.1898 3.3952-0.65561-11.678-4.4708h-11.822l-0.3 2-0.2 2.5 14 1 2.1583-2.7532zm107.92 0.44972 0.90305-1.6137 4.3981 2.3538 3.3952-0.65561-11.678-4.4708h-11.822l-0.3 2-0.2 2.5 13 1.1548 1.4006 0.3452zm-128.8-0.80455v-0.41821l1.214-3.1636h-5.964l-6.25 1.25v1.6293l7.5 0.78452 3.5 0.33621zm111 0v-0.41821l1.214-3.1636h-5.964l-6.25 1.25v1.6293l7.5 0.78452 3.5 0.33621zm112.33 74.832-0.65333-1.7026 3.825-2.7989 6 0.58811v5l-8.5183 0.61589zm21.05-10.413v-11.5l0.72164 11.5-0.72164 11.5zm-29.506-0.66206-1.3724-1.6621-6-3.6684 2.4304-0.0074 6.8336 6h20.172l0.6334-23.5 0.21504 12.25 0.21503 12.25h-21.755zm-12.622-6.0273 1.75-0.45732 3.5 0.91464h-7zm-15.536-1.9297-0.71426-0.71426v-11.782l8.2603 0.615 8.6e-4 12-6.8326 0.59518zm36.465-10.073 0.34824-1.8082h8.9726v3l-9.6691 0.61649zm-288.68-2.3082-12-0.59773 25.618-0.40227-1.2361 2-0.38197-0.40227zm308.04-1.1668-0.45875-1.3332-1.1187-6.4315-1.1187-6.4315-4.5688-12.137-7.4058-14.705 0.88854-0.88854 9.5258 12.594 2.2144 5 2.2144 5 2.2141 10 0.28552 4.9023 0.28553 4.9023-2.499 0.86175zm-21.042-1.9456-5-0.88874-19-4.2338-12.5-5.6396v-25.125h31.866l7.1162 8.6844 5.7749 12.816 1.6214 7.1974 1.6214 7.1974v1.1052l-6.5-0.22368zm14.658-3.8876v-2.5l1.0088 2.5-1.0088 2.5zm-1.0217-4.6682-0.13618-2.1682-0.57551-1.8318-0.5755-1.8318 2.2826 3.5575-0.42961 2.2212-0.4296 2.2212zm-299.64-0.30312-10-0.584 27.249-0.94467-0.96325 2.5-6.286-0.38733zm296.71-8.7276-1.0183-2.801-3.3801-8 0.92931 1 0.9293 1 4.4661 10.694-0.9079 0.9079zm-298.21-2.3521 4.5-0.80071 17.5-0.14825v2l-26.5-0.25033zm291.5-11.949-1.5514-3h1l3.1027 6h-1z"
      fill="#f6994e" />
    <path
      d="m25.201 130.97-2.1765-2.0277-1.2508-4.9835 1.2856-3.1036 1.2856-3.1036 6.3634-2.6588 320.94-0.016 6.7334 3.4205 0.90719 2.7929 0.90719 2.7929-0.62308 2.4825-0.62307 2.4825-1.9746 1.9746-1.9746 1.9749h-327.62zm11.214-4.4436 1.8694-3.4713 1.716 1.0606v1.7353l-3.5 0.91465 4.7795 0.232 2.557 3.4969 0.66992-0.66993 0.66992-0.66992-5.3664-9.157h-1.7256l-5.0843 8.6757v1.3243h1.5452zm18.385 2.2713 1.2-1.2v-7.6h-1.8793l-0.62073 7.5h-6l-0.62073-7.5h-1.8793v6.8571l3.1429 3.1429h5.4571zm12.048 0.31486 1.3484-0.85451-0.71316-3.7604-6.9836-0.64259-1.9-1.8574h8.4v-2h-8.786l-1.129 2.9421 3.1679 3.1679 5.0726-0.61 0.84117 2.5h-9.2847l1.2361 2 7.382-0.0306 1.3484-0.85451zm9.2091-7.1149h1.9425v-2h-9v2h3v6.6667l0.75 0.76047 0.75 0.76048 0.615-8.1876zm4.9425 4v-4h7v3h-6v2h3.3425l3.6697 3.3211 1.3544-1.3544-2.2233-2.2233 2.2363-3.5809-2.6246-3.1624h-8.7551v10h2zm13.902 0.44148 2.0996-3.5585 1.9984 1.2351v1.882l-3.5 0.232 4 0.97448 1.7561 1.5573 1.7561 1.5573 0.86788-0.86788-2.9419-4.7266-2.9419-4.7266h-1.5109l-5.4854 9.0815v0.91848h1.8024zm18.098 2.5585v-1h-6v-8h-2v10h8zm3-4v-5h-2v10h2zm4.129 3.165 1.146-1.835 5.225 0.9916 2.3365 3.1753 0.62917-0.62918 0.62918-0.62917-5.5803-9.2385h-1.4895l-2.3329 3.75-2.333 3.75-0.73861 1.25-0.73862 1.25h2.1011zm2.0626-3.24 0.35833-1.075h1.9l0.35833 1.075 0.35834 1.075h-3.3333zm22.808 4.1354v-0.93964l-7.5-0.62073v-5l6-0.65389 0.95-0.92306 0.95-0.92305h-8l-2.4 2.4v4.4571l3.1429 3.1429h6.8571zm3.6384-0.56037 0.57561-1.5h5.6866l0.97469 1.7417 0.97468 1.7417 1.393-1.393-5.3273-9.0903h-1.7256l-5.19 8.8561v1.1439h2.0628zm2-4 0.57561-1.5h1.572l0.57561 1.5 0.5756 1.5h-3.8745zm13.919-2.5h3.4425v3h-5v2h4.0628l1.1512 3h2.904l-1.595-2.5-0.023-7-9.5-0.60958 0.17471 5.3048 0.1747 5.3048 0.3828-4.25 0.38279-4.25h3.4425zm16.442 4.1166v-3.8834l3.8955-1.0187 0.30225 4.1427 0.30226 4.1427 1-0.22911 1-0.2291 0.31037-3.5209 0.31036-3.5209h5.8793v3h-5v2h3.786l0.57561 1.5 0.5756 1.5h3.1808l-1.595-2.5-0.023-7-20.614-0.49285 1.2316 1.9928h2.882v8h2v-3.8834zm21.995-2.4256 5e-3 -0.80901 2 1.2361v1.7353l-3.5 0.91465 4.7795 0.232 1.2785 1.7484 1.2785 1.7484 0.70258-0.70259 0.70259-0.70259-5.7416-9.0881-1.4157-4e-3 -5.0843 8.6757 0.072 1.8243 4.9181-6 5e-3 -0.80902zm10.005 2.6061v-3.703l7.626 7.4466 0.687-0.68701 0.68701-0.687v-8.6667h-2v6.3923l-3.2976-3.1962-3.2976-3.1962h-2.4048v10h2zm19.816 0.45295 0.31642-2.75h-8.1328v-2h8v-2.1096l-9.5 0.60958-0.60494 4.2393 4.6049 1.2334 4.618 0.0273-1.2361 2h-7.882v2.1096l9.5-0.60958 0.31642-2.75zm4.1836-0.81336v-4.0634l6.5 0.62672-0.43782 2-5.0622 0.63284v1.9939l6.5-0.62672v-6l-9.5-0.60958v10.11h2zm19.066 3.0282 1.9343-1.0352v-5.6847l-2.8604-2.3739-7.6032 0.62905-1.9012 5.4394 3.6748 4.0606h4.8215zm-7.0552-2.4521-1.2343-1.4873 0.58049-1.5127 0.58049-1.5127h5.6628l2.3064 2.3064-0.98838 1.8468-0.98838 1.8468h-4.6847zm12.989-1.1351v-3.5043l6.5 0.62672-0.43782 2-5.0622 0.63284 0.016 1.3672 5.4844 2.6545 2.8281 1.1854-1.805-2.8399-0.023-7-9.5-0.60958v10.228l2-1.2361v-3.5044zm15 0.62238v-4h3v-2h-9.118l1.2361 2h2.882v8h2zm10 0v-4h7v3h-6v2l5.5-0.0306 2.7707-1.7547-0.65439-2.6073-0.6544-2.6073h-9.9619v10h2v-4zm15 0.11663v-3.8834l4.4462-1.1627 4.5538 4.2781v4.6514h2v-3.3112l5.1018-6.6888h-2.6207l-1.3145 2.1048-1.3145 2.1048-4.5898-4.3119-12.762 0.73145 4.5 1.604v7.7667h2zm29.5 2.8834 0.61803-1h-7.118v-8h-2v10h7.882zm4.5-3v-4h4v-2h-9v2h3v8h2zm14.051 1.9488 2.0512-2.0512-1.3719-4.3977-2.2304-1.4694-3.75-0.0153-3.75-0.01533v10h7zm-7.0512-2.9488v-3h5.786l1.2485 3.2535-2.2794 2.7465h-4.7551zm-259.35-18.829-1.655-1.8287v-6.0325l3.6575-3.31h6.1974l4.2582 5.4134-1.2225 5.0866-3.2728 2.5h-6.3078zm33.384-0.35982-2.039-2.1886v-3.5114l4.6118-5.3615h5.5826l4.0556 4.0556v5.2607l-1.78 1.9669-1.78 1.9669h-6.6121zm77.616 0.35982-1.655-1.8287v-6.0325l3.8129-3.4506 6.4893 0.64067 3.9088 5.2596-0.67104 2.1143-0.67104 2.1142-3.0118 3.0118h-6.5472zm33.418-0.80612-2.0726-2.6349v-2.4606l4.1452-5.2697h6.7414l1.5567 2.2225 1.5567 2.2225v5.245l-3.6575 3.31h-6.1974zm62.703 0.0761-2.7249-1.4787-1.0251-1.9155-1.0251-1.9155v-6.2224l4.8278-4.8278 5.5523-1.3935 7.0973 3.8122 2.6658 5.5708-1.7973 5.4292-6.6416 4.5-4.2042-0.08-2.7249-1.4787zm-217.77-6.1912 0.0051-2.75 4.6056-7.608 5.8841-3.8788 10-0.0058 6.4029 3.9041 3.4144 6.5884 1.4721 6.5h-3.5668l-0.64529-3.4397-0.6453-3.4397-5.9212-4.9824-4.1847-1.3282-6.6829 1.2537-6.1562 5.7507-0.61855 3.0928-0.61853 3.0929h-2.75l0.0051-2.75zm33.942-0.5 0.73605-3.25 3.4144-6.5884 6.4029-3.9041 9.7639-0.0074 6.2361 3.8619 3.7709 6.4053 0.75925 3.3664 0.75926 3.3664h-3.4728l-2.3647-7.8927-5.1548-4.0547-7.0196-1.3169-6.7912 3.2385-3.9788 6.5258-4e-3 1.75-4e-3 1.75h-3.7894l0.73605-3.25zm77.053 1.2179v-2.0321l1.351-3.2335 1.351-3.2335 7.3675-6.4688h10.635l6.6876 4.5068 1.705 2.9966 1.705 2.9966 0.67855 3.25 0.67854 3.25h-3.9363l-1.2532-6.6801-4.4694-4.0699-4.3685-2.2499h-4.3292l-6.6851 3.1723-3.1361 4.7863-0.41724 5.0414h-3.5638zm34.016-0.71788 0.0165-2.75 4.4682-7.8885 6.469-3.7781h9.0241l7.0679 4.3682 1.9689 3.8594 1.9689 3.8594v5.0797h-2.6834l-2.3647-7.8927-5.1548-4.0547-6.4738-1.2145-7.2795 3.0416-4.0363 6.6204-8e-3 3.5h-3l0.0164-2.75zm45.268-5.0272-14.216-0.27725-3.3494-7.0584-6.5326-4.9827-6.9694-1.131-7.0846 2.3381-7.1319 7.8942v2.9942h-2.7574l-1.2446-3.0046-1.2445-3.0046-6.7108-5.8921-7.0296-1.3188-5.5132 1.3758-6.6271 5.043-3.2433 6.8012h-45.259l-3.2433-6.8012-6.9412-5.2943-6.9694-1.131-7.1843 2.371-7.0322 8.2155v2.64h-3v-2.9304l-6.4688-7.3675-6.467-2.7021h-5.1439l-8.0702 4.1171-5.3501 8.8197-16.5 0.063217v-17h170.17l-0.41657-1.25-0.41656-1.25-169.83-1.017 40-0.51907 98.752 0.07176 1.374-1.1403 1.374-1.1403v2.2449h28.651l4.6973-5h40.651v-35.976l-153.3-0.02181-1.5433 1.2491-1.5433 1.2491 1.502-2.5h-53.118v-2.9032l184.5-0.0114 23.267-0.0854 1.046-4 4.6872 0.232-3.5 0.91464v41.853h3v5h26.268l7.6928 2.3048 6.5392 7.1952 0.2 2.5 0.3 3h30.93l1.1618 2.1708 1.1618 2.1708-3.6355 2.6583h-30.749l-3.9245-2.1003 1.174-1.8997h-2.2361l0.33155-0.75 0.33156-0.75-6.914-7 0.75864 1.5 0.75863 1.5-3.0152-3.7003-1.221 0.75465-1.221 0.75465 1.1953-1.934h-12.773l0.99015 1.6021-3.1039-1.1911v2.214l-1.5-0.44506-6.2564 6.3553 1.0897 1.0897h-2.1942l-0.6391 3.5zm62.901-9.9728 0.33164-1.75 7.4834-0.62073v4.1207h-8.1466zm20.193-9.25v-11.5l0.72164 11.5-0.72164 11.5zm-29.506-0.66206-1.3724-1.6621-6-3.6684 2.4304-0.0074 6.8336 6h20.172l0.6334-23.5 0.21504 12.25 0.21503 12.25h-21.755zm-12.622-6.0273 1.75-0.45732 3.5 0.91464h-7zm-15.536-1.9297-0.71426-0.71426v-11.782l8.2603 0.615 8.6e-4 12-6.8326 0.59518zm-136.46-2.0404-1.2415-0.50156-9.1789-16.839h-19.838v3h15.667l1.1511 1.1511-4.0014 11.849h-18.816v-4.9191l16.5-0.58088v-3l-13.955-0.60175-1.7725-1.6041-1.7725-1.6041v-5.38l4.1818-3.7844 21.803-0.74626 4.913 1.2331 7.3503 13.988 1.2523-0.0134 7.5003-13.773 3.1633-1.2139h22.742l5.1421 2.3429 0.62232 2.4795 0.62231 2.4795-2.3238 3.7209 1.4815 2.261 1.4815 2.261-1.186 4.5353-5.6465 2.9199h-14.885l-1.214-3.1636v-2.8364h16v-2.742l-17.802-1.3926-0.9919-3.793 18.294-0.57232v-2l-21.324-0.56587-8.451 15.566-3.1077 2.5-1.1177-0.1579-1.2415-0.50156zm-12.928-0.96465-1.17-0.48923 3.1289-9.1829 1.4176 2.7055 1.4176 2.7055-0.31202 2.1824-0.31203 2.1824-3 0.38555zm24.187-1.3235-0.61816-1.9476 3.8644-7.5326 2.8596 9.9278-2.1226 1.4694-3.3652 0.030626zm42.483-10.052 4.0223-8h1l-8.0446 16h-1zm119.18 4.3082 0.34824-1.8082h8.9726v3l-9.6691 0.61649zm-288.68-2.3082-12-0.59773 25.618-0.40227-1.2361 2-0.38197-0.40227zm308.04-1.1668-0.45875-1.3332-1.1187-6.4315-1.1187-6.4315-4.5688-12.137-7.4058-14.705 0.88854-0.88854 9.5258 12.594 2.2144 5 2.2144 5 2.2141 10 0.28552 4.9023 0.28553 4.9023-2.499 0.86175zm-21.042-1.9456-5-0.88874-19-4.2338-12.5-5.6396v-25.125h31.866l7.1162 8.6844 5.7749 12.816 1.6214 7.1974 1.6214 7.1974v1.1052l-6.5-0.22368zm14.658-3.8876v-2.5l1.0088 2.5-1.0088 2.5zm-1.0217-4.6682-0.13618-2.1682-0.57551-1.8318-0.5755-1.8318 2.2826 3.5575-0.42961 2.2212-0.4296 2.2212zm-299.64-0.30312-10-0.584 27.249-0.94467-0.96325 2.5-6.286-0.38733zm296.71-8.7276-1.0183-2.801-3.3801-8 0.92931 1 0.9293 1 4.4661 10.694-0.9079 0.9079zm-298.21-2.3521 4.5-0.80071 17.5-0.14825v2l-26.5-0.25033zm39.914-4.5531-1.3313-1.6042-4.4776-1.7024-3.3783-5.1559 3.5774-7.9333h1.2487l16.766-2.1023 1.3011 2.1052 13.361 0.4971 0.018 1.2918 16.24 1.4376 1.6988-2.7294 4.0339 2.5h4.2411l-1.2367-3.2227 3.5227 1.4224 13.999 3.9456 6.3025 3.8952 0.59923 1.5616 0.59922 1.5616v1.8364h-12.69l-3.62 4h-5.4203l-5.0852-4h-38.875l-3.62 4h-6.4451l-1.3313-1.6042zm7.8088-0.64582 0.96721-1.25 1.2903-3.6111-4.9665-4.9665-3.9675 2.1234-2.188 4.0883 3.1882 4.8659h4.709zm53.805-0.78028 1.8374-2.0303-1.9016-5.4394-5.5841-0.64452-2.8791 2.3894v5.3551l2.4 2.4h4.29zm49.357 1.1678-2.3849-1.8624-4.2849-1.3416-2.3299-5.6249 3.4155-7.1623 10.199-1.251 8.5-1.1224v1.9688l12.191 1.3793 2.7166-3.6209-2.9317-2.238 12.524 0.063738-7.8846 0.81795-2.5518 3.3563-0.03181 1.1459-0.0318 1.1459 16.24 1.4376 1.6988-2.7294 4.0339 2.5h4.2411l-1.2367-3.2227 3.5227 1.3936 15.308 4.4734 5.1917 3.4017v4.9539h-11.69l-3.62 4h-5.384l-4.612-4h-39.384l-3.62 4h-5.4203zm8.5787-1.0973 1.7735-1.9597-1.2675-5.0501-5.2791-1.325-3.0568 1.9282-1.996 3.1644 3.4085 5.202h4.6439zm53.128-0.5403 1.6381-2.5-3.2761-5h-4.5539l-2.4 2.4v5.2l2.4 2.4h4.5539zm78.908-5.5-1.5514-3h1l3.1027 6h-1zm-207-11.085-5-1.93 5.7791 1.1232 6.2209 2.7287-2 0.00814zm111 0-5-1.93 5.7791 1.1232 6.2209 2.7287-2 0.00814zm-128.05 0.39647 0.59519-1.1885-3.3153-1.8553 12.773 0.058105-7.8846 0.81795-2.7638 3.3563zm-6.6344-1.9946 1.3125-0.52522 1.2083 1.2083-3.8333-0.15789zm111 0 1.3125-0.52522 0.60417 0.60417 0.60416 0.60417-3.8333-0.15789z"
      fill="#9d9d9d" />
    <path
      d="m25.455 130.55-2.4545-2.4545v-7.1818l4.9091-4.9091h325.98l5.1769 4.5 0.2705 7.8143-5.4474 4.6857h-325.98zm10.127-1.8972 0.51872-1.3518 5.3998 0.97189 2 1.4643 11.574 0.32059 2.8476-6.5533 0.03914 1.25 0.039144 1.25h8.118l-0.53817 0.87078-0.53817 0.87077-7.4057-0.1496-0.80267 2.408h9.9218l2.2794-2.7465-1.2551-3.2708-4.2794-0.90487-4-0.84587 6.25-0.116 6.25-0.11595v8h3v-8h3v-2.9191l-18.428 0.0293-2.3941 1.987-0.64804-1.0486-0.64804-1.0486h-1.882v7.8652l-4.2013 1.3334-0.82804-0.84933-0.82804-0.84934-0.64259-6.846-1.3897-0.45691-1.3897-0.45692 0.98584 10.26h-0.59104l-5.6154-9.998-0.60052-0.00101-0.60052-0.00102-6.299 10.133v0.86711h3.0628zm2.0742-4.1934 0.55386-1.4433 1.7904 1.1065v0.66799l-2.8981 1.1121zm43.344 1.4818v-4.0634l6.5 0.62672-0.43782 2-5.0622 0.63284v2.8672h5v2h5.7551l2.2576-2.7202 5.0169 0.95903 1.0885 1.7612h18.427l3.7388-6.9425 1.716 1.0606v1.882l-2.25-0.5-0.45833 1.25-0.45834 1.25h5.1667v2h3v-1.6084l-2.978-4.6958-2.978-4.6958h-0.8725l-6.1531 10-0.51849 4e-3v-9.3215l-1.25-0.42418-1.25-0.42419v8.8333h-7v-8.6667h-3l-0.0236 9.5-6.2131-9.5h-1.4455l-5.4593 10.031-1.793-1.1082 1.1835-5.9175-1.2469-1.5025-1.2469-1.5032h-8.5621l-0.34651 5.0838-0.34651 5.0838 0.41667 0.41617 0.41667 0.41618h1.6667zm15-0.93664v-1h2.118l-1.2361 2h-0.88197zm52.5 4 0.61803-1h5.7639l1.2361 2h5.9577l-0.19338-2.25-0.19337-2.25 0.15553-1.75 0.15552-1.75h6v3h-6.1667l0.41942 1.25 0.41943 1.25 3.251 0.0232 1.2384 1.2384 1.2384 1.2384h2.6v-1.8333l-2.2725-0.7575 2.6837-4.2973-3.7212-4.1119h-8.69l-0.0442 10.5-6.121-10.5h-1.6449l-2.499 4.2642-2.499 4.2642-7.4739-0.0284-1.0737-1.702-1.0737-1.702 1.4072-1.4072 7.5221-1.2227-0.21039-0.98303-0.21039-0.98304-4.2826-0.66576-4.8646 1.2209-2.2157 4.8629 3.3298 5.0819h10.836l0.61803-1zm32.5-3v-4h4v8h3v-2.6658l4.0312 0.29699 2.3688 2.3688h5.6628l0.51872-1.3518 0.51871-1.3518 5.3998 0.97189 2.5483 2.0166 1.1455-1.1455-5.6938-10.138-1.31-2e-3 -2.6372 4.5-2.6372 4.5h-1.7977l-1.1506-1.8618 1.0163-0.62812 1.0163-0.62811v-2.7391l-3.1429-3.1429h-18.857v3h3v6.6667l0.66667 0.66666 0.66666 0.66667h1.6667v-4zm21.7-1.6609 0.50944-1.3276 1.7904 1.1065v1.5486h-2.8093zm-14.7-0.83908v-1.5h6v3h-6zm25 3.3038v-3.1962l6.5 6.225 17.5 8e-3v-2.4951l5.6775 0.83327 3.3225-3.3225v2l3.1429 3.1429h6.7437l3.1134-4.445v4.445h3v-2.7227l5.0296 0.96146 1.0885 1.7612h4.3105l-3.1633-3.1633 1.1174-2.4105 1.1174-2.4105 2.5-0.016v8h3v-8h4v-2.86l-22 0.04v3.8201l-4-4h-5.3425l-3.5698 3.2306-3.0748-3.0748-18.979-0.039-1.9732 3.3831-0.0304-1.75-0.03042-1.7488h-3v6.3923l-3.2976-3.1962-3.2976-3.1962h-1.4048v11h2zm9.0304-1.8004 0.0304-2.5034 2.0386 3.5h6.9006v1.7833l-9-0.27647 0.0304-2.5034zm27.278 1.4606-1.8084-1.3418 1.6654-1.6908 1.6654-1.6908 5.1693 1.2974v3.9619l-1.5 0.153-1.6916 0.32644-1.6916 0.32643-1.8084-1.3418zm-17.308-2.4808-1.5-0.95264-6-0.33102 9-1.1996 0.33333 0.75 0.33334 0.75-0.33334 0.96795-0.33333 0.96796zm5-0.48327v-1.5h6v3h-6zm25-0.0664v-1.5664l5.3458 0.63284 0.41045 1.25 0.41046 1.25h-6.1667zm25.882 4.3164-0.19337-2.25 0.15553-1.8164 0.15552-1.8164 5.3458 0.63284 0.41045 1.25 0.41046 1.25h-6.3333l0.41166 1.25 0.41167 1.25 2.1102 0.31149 2.1102 0.3115 4.1959-4.1959-0.59549-0.96352-0.59549-0.96353h4.118v8h3v-8h4.1794l1.877 2.25 1.877 2.25 0.0666 3.5h3v-4.6514l5-4.6973v-1.6514h-2.3711l-4.6696 4.3869-3.0727-4.3869h-12.887v2.4l-2.4-2.4h-8.6v11h3.0757l-0.19338-2.25zm43.868 1-0.41656-1.25-5.8335-0.072v-7.7592l-2.5-0.83546v11.167h9.1667l-0.41657-1.25zm4.4129-3.0799-0.31621-3.6701h4.1532v8h8.8571l3.1429-3.1429v-4.7437l-4.445-3.1134h-6.555l-0.079 1.25-0.0789 1.25-1.0088-2.5h-9.8333v3h4v8.1667l1.2396-0.4132 1.2396-0.41319-0.3162-3.6701zm6.837-0.9037v-2.8993l5.5 0.63284 0.6391 4.5-1.6391 0.1666-4.5 0.49909v-2.8993zm-258.1-18.052-1.6045-1.222-1.3529-4.2625 2.3128-5.076 4.6103-1.1571 4.866 1.8501 1.2728 3.3168v3.8364l-4 4-4.5-0.0636-1.6045-1.222zm33.104-0.71436-2-2v-4.6177l2.5-3.3553 6.2917-1.2353 4.2083 4.2083v5l-4 4h-5zm77.073-0.63486-2.0726-2.6349v-2.8212l4.9091-4.9091h4.0909l4 4v5.8866l-4.445 3.1134h-4.4098zm33.927 0.63486-2-2v-4.6177l2.5-3.2728 5.0866-1.2225 5.4134 4.2582v4.8548l-4 4h-5zm59.923-2.9231-2.9231-2.9231v-5.0423l4.8268-5.6115h9.3463l4.8268 5.6115v5.0423l-5.8462 5.8462h-7.3077zm-215.92-2.865v-1.7881l4.5-8.8067 5.6467-4.1171h10.707l5.6467 4.188 4.4671 7.812 0.0164 2.25 0.0165 2.25h-2v-3.0993l-3.0971-5.9891-6.4029-3.9041-8.7353-0.007476-7.7647 7.7647v5.2353h-3zm34 0v-1.7881l4.5-8.8067 5.6467-4.1171h10.707l5.6467 4.1171 4.5 8.8067v3.5762h-3v-4.1914l-3.2711-5.5375-5.5375-3.2711-7.6914 0.0074-6.1601 3.7564-3.3399 7.0384v2.1977h-2v-1.7881zm77.469-0.96189 0.68552-2.75 3.0923-6.5394 5.9361-4.2269 8.6215-0.97177 7.9601 4.4738 4.2358 7.5365v5.2277h-2v-2.1977l-3.3399-7.0384-6.1601-3.7564-7.6914-0.0074-5.8147 3.4348-3.907 7.8967 0.51558 0.83422 0.51557 0.83422h-3.3348l0.68553-2.75zm33.531 0.96189v-1.7881l4.5-8.8067 5.6467-4.1171h10.707l5.6467 4.188 4.4671 7.812 0.0165 2.25 0.0164 2.25h-3v-4.1914l-3.2711-5.5375-5.5375-3.2711h-7.2907l-5.6037 2.8978-3.316 5.0608-0.41724 5.0414h-2.5638zm-162-14.712v-8.5h170.17l-0.41657-1.25-0.41656-1.25-169.83-1.017 40-0.51907 98.752 0.07176 1.374-1.1403 1.374-1.1403v2.2449h28.651l4.6973-5h40.651v-35.976l-153.3-0.02181-1.5433 1.2491-1.5433 1.2491 1.502-2.5h-53.118v-2.9032l184.5-0.0114 23.267-0.0854 1.046-4 4.6872 0.232-3.5 0.91464v41.853h3v5h26.268l7.8281 2.3453 5.8053 6.6119 0.65595 3.4965 0.65596 3.4965 31.287 0.5497 0.6391 4.5-35.639-0.0516-3.6728-7.9654-8.5029-4.983h-11.424l-5.6038 2.8978-6.2969 7.1718v2.9304h-28.906l-3.3753-7.1129-6.5326-4.9827-6.9694-1.131-7.0846 2.3381-7.1319 7.8942v2.9942h-2.7574l-1.2446-3.0046-1.2445-3.0046-6.7108-5.8921-7.0296-1.3188-5.5132 1.3758-6.6271 5.043-3.2433 6.8012h-45.259l-3.2433-6.8012-6.9412-5.2943-6.9694-1.131-7.1843 2.371-7.0322 8.2155v2.64h-3v-2.9304l-6.4688-7.3675-6.467-2.7021h-5.1439l-8.0702 4.1171-5.3501 8.8197-16.5 0.063217zm270.18-1.25 0.33164-1.75 7.4834-0.62073v4.1207h-8.1466zm-37.739-24 0.0535-5.75 7.5-0.62073v12.121h-7.6071zm-149.12 3.1259-1.17-0.48923 3.1289-9.1829 1.4176 2.7055 1.4176 2.7055-0.31202 2.1824-0.31203 2.1824-3 0.38555zm10.319-3.1399-2.3761-3.764-5.3428-10.544-19.43 0.57158v4l15.68 0.58738-1.3159 3.4126-2.2794 8.5h-18.308l0.42838-2.25 0.42837-2.25h15.366v-4l-14.406-1-1.9523-2-0.65743-2.6633-0.65742-2.6633 4.231-4.231 26.396 0.55765 8.0354 14.5 1.0109-0.017 3.9915-7.4915 3.9915-7.4915h27.517l4.1849 4.1849-1.379 4.3151 0.0652 3 0.68772 2.785 0.68771 2.785-1.7783 1.965-1.7783 1.965h-17.476l-1.214-3.1636 5e-3 -0.66821 5e-3 -0.66821 15.179-0.28901 2.2943-2.2943-1.4916-0.94305-1.4916-0.94305-16.5-0.030626-4e-3 -3.5h17.503v-4l-21.432-0.56698-2.6702 5.2695-2.6703 5.2695-2.3761 3.764-2.3752 3.764h-3.9498zm13.868 1.8164-0.61816-1.9476 3.8644-7.5326 2.8596 9.9278-2.1226 1.4694-3.3652 0.030626zm42.483-10.052 4.0223-8h1l-8.0446 16h-1zm119.46 4.9335-0.65915-1.0665 0.35013-0.34028 0.35014-0.34028 7.9744-0.6771 0.33612 1.7454 0.33613 1.7454h-8.0286zm19.208-4.6001-0.66667-0.66667v-5.0391l-4.186-15.128-8.814-18.137v-1.5522l7.1581 8.5677 5.0282 9.9227 1.4044 4.5994 1.4044 4.5994 1.2921 13.5h-1.9539zm-20.167-1.8623-8-1.2997-14.43-3.1289-11.357-3.9917-3.7135-3.3606v-22.69h31.608l6.2672 6.5 5.9497 12.034 3.1755 12.255v5.2113l-1.5-0.22929zm-248.59-24.075-1.3313-1.6042-4.4776-1.7024-3.3783-5.1559 3.5774-7.9333h1.2487l16.766-2.1023 1.3011 2.1052 13.361 0.4971 0.018 1.2918 16.24 1.4376 1.6988-2.7294 4.0339 2.5h4.2411l-1.2367-3.2227 3.5227 1.4224 13.999 3.9456 6.3025 3.8952 0.59923 1.5616 0.59922 1.5616v1.8364h-12.69l-3.62 4h-5.4203l-5.0852-4h-38.875l-3.62 4h-6.4451l-1.3313-1.6042zm7.8088-0.64582 0.96721-1.25 1.2903-3.6111-4.9665-4.9665-3.9675 2.1234-2.188 4.0883 3.1882 4.8659h4.709zm53.805-0.78028 1.8374-2.0303-1.9016-5.4394-5.5841-0.64452-2.8791 2.3894v5.3551l2.4 2.4h4.29zm49.357 1.1678-2.3849-1.8624-4.2849-1.3416-2.3299-5.6249 3.4155-7.1623 10.199-1.251 8.5-1.1224v1.9688l12.191 1.3793 2.7166-3.6209-2.9317-2.238 12.524 0.063738-7.8846 0.81795-2.5518 3.3563-0.03181 1.1459-0.0318 1.1459 16.24 1.4376 1.6988-2.7294 4.0339 2.5h4.2411l-1.2367-3.2227 3.5227 1.3936 15.308 4.4734 5.1917 3.4017v4.9539h-11.69l-3.62 4h-5.384l-4.612-4h-39.384l-3.62 4h-5.4203zm8.5787-1.0973 1.7735-1.9597-1.2675-5.0501-5.2791-1.325-3.0568 1.9282-1.996 3.1644 3.4085 5.202h4.6439zm53.128-0.5403 1.6381-2.5-3.2761-5h-4.5539l-2.4 2.4v5.2l2.4 2.4h4.5539zm-128.09-16.585-5-1.93 5.7791 1.1232 6.2209 2.7287-2 0.00814zm111 0-5-1.93 5.7791 1.1232 6.2209 2.7287-2 0.00814zm-128.05 0.39647 0.59519-1.1885-3.3153-1.8553 12.773 0.058105-7.8846 0.81795-2.7638 3.3563zm-6.6344-1.9946 1.3125-0.52522 1.2083 1.2083-3.8333-0.15789zm111 0 1.3125-0.52522 0.60417 0.60417 0.60416 0.60417-3.8333-0.15789z"
      fill="#fa7201" />
    <path
      d="m25.455 130.55-2.4545-2.4545v-7.1818l4.9091-4.9091h325.98l5.1769 4.5 0.2705 7.8143-5.4474 4.6857h-325.98zm10.127-1.8972 0.51872-1.3518 5.3998 0.97189 2 1.4643 11.574 0.32059 2.8476-6.5533 0.03914 1.25 0.039144 1.25h8.118l-0.53817 0.87078-0.53817 0.87077-7.4057-0.1496-0.80267 2.408h9.9218l2.2794-2.7465-1.2551-3.2708-4.2794-0.90487-4-0.84587 6.25-0.116 6.25-0.11595v8h3v-8h3v-2.9191l-18.428 0.0293-2.3941 1.987-0.64804-1.0486-0.64804-1.0486h-1.882v7.8652l-4.2013 1.3334-0.82804-0.84933-0.82804-0.84934-0.64259-6.846-1.3897-0.45691-1.3897-0.45692 0.98584 10.26h-0.59104l-5.6154-9.998-0.60052-0.00101-0.60052-0.00102-6.299 10.133v0.86711h3.0628zm2.0742-4.1934 0.55386-1.4433 1.7904 1.1065v0.66799l-2.8981 1.1121zm43.344 1.4818v-4.0634l6.5 0.62672-0.43782 2-5.0622 0.63284v2.8672h5v2h5.7551l2.2576-2.7202 5.0169 0.95903 1.0885 1.7612h18.427l3.7388-6.9425 1.716 1.0606v1.882l-2.25-0.5-0.45833 1.25-0.45834 1.25h5.1667v2h3v-1.6084l-2.978-4.6958-2.978-4.6958h-0.8725l-6.1531 10-0.51849 4e-3v-9.3215l-1.25-0.42418-1.25-0.42419v8.8333h-7v-8.6667h-3l-0.0236 9.5-6.2131-9.5h-1.4455l-5.4593 10.031-1.793-1.1082 1.1835-5.9175-1.2469-1.5025-1.2469-1.5032h-8.5621l-0.34651 5.0838-0.34651 5.0838 0.41667 0.41617 0.41667 0.41618h1.6667zm15-0.93664v-1h2.118l-1.2361 2h-0.88197zm52.5 4 0.61803-1h5.7639l1.2361 2h5.9577l-0.19338-2.25-0.19337-2.25 0.15553-1.75 0.15552-1.75h6v3h-6.1667l0.41942 1.25 0.41943 1.25 3.251 0.0232 1.2384 1.2384 1.2384 1.2384h2.6v-1.8333l-2.2725-0.7575 2.6837-4.2973-3.7212-4.1119h-8.69l-0.0442 10.5-6.121-10.5h-1.6449l-2.499 4.2642-2.499 4.2642-7.4739-0.0284-1.0737-1.702-1.0737-1.702 1.4072-1.4072 7.5221-1.2227-0.21039-0.98303-0.21039-0.98304-4.2826-0.66576-4.8646 1.2209-2.2157 4.8629 3.3298 5.0819h10.836l0.61803-1zm32.5-3v-4h4v8h3v-2.6658l4.0312 0.29699 2.3688 2.3688h5.6628l0.51872-1.3518 0.51871-1.3518 5.3998 0.97189 2.5483 2.0166 1.1455-1.1455-5.6938-10.138-1.31-2e-3 -2.6372 4.5-2.6372 4.5h-1.7977l-1.1506-1.8618 1.0163-0.62812 1.0163-0.62811v-2.7391l-3.1429-3.1429h-18.857v3h3v6.6667l0.66667 0.66666 0.66666 0.66667h1.6667v-4zm21.7-1.6609 0.50944-1.3276 1.7904 1.1065v1.5486h-2.8093zm-14.7-0.83908v-1.5h6v3h-6zm25 3.3038v-3.1962l6.5 6.225 17.5 8e-3v-2.4951l5.6775 0.83327 3.3225-3.3225v2l3.1429 3.1429h6.7437l3.1134-4.445v4.445h3v-2.7227l5.0296 0.96146 1.0885 1.7612h4.3105l-3.1633-3.1633 1.1174-2.4105 1.1174-2.4105 2.5-0.016v8h3v-8h4v-2.86l-22 0.04v3.8201l-4-4h-5.3425l-3.5698 3.2306-3.0748-3.0748-18.979-0.039-1.9732 3.3831-0.0304-1.75-0.03042-1.7488h-3v6.3923l-3.2976-3.1962-3.2976-3.1962h-1.4048v11h2zm9.0304-1.8004 0.0304-2.5034 2.0386 3.5h6.9006v1.7833l-9-0.27647 0.0304-2.5034zm27.278 1.4606-1.8084-1.3418 1.6654-1.6908 1.6654-1.6908 5.1693 1.2974v3.9619l-1.5 0.153-1.6916 0.32644-1.6916 0.32643-1.8084-1.3418zm-17.308-2.4808-1.5-0.95264-6-0.33102 9-1.1996 0.33333 0.75 0.33334 0.75-0.33334 0.96795-0.33333 0.96796zm5-0.48327v-1.5h6v3h-6zm25-0.0664v-1.5664l5.3458 0.63284 0.41045 1.25 0.41046 1.25h-6.1667zm25.882 4.3164-0.19337-2.25 0.15553-1.8164 0.15552-1.8164 5.3458 0.63284 0.41045 1.25 0.41046 1.25h-6.3333l0.41166 1.25 0.41167 1.25 2.1102 0.31149 2.1102 0.3115 4.1959-4.1959-0.59549-0.96352-0.59549-0.96353h4.118v8h3v-8h4.1794l1.877 2.25 1.877 2.25 0.0666 3.5h3v-4.6514l5-4.6973v-1.6514h-2.3711l-4.6696 4.3869-3.0727-4.3869h-12.887v2.4l-2.4-2.4h-8.6v11h3.0757l-0.19338-2.25zm43.868 1-0.41656-1.25-5.8335-0.072v-7.7592l-2.5-0.83546v11.167h9.1667l-0.41657-1.25zm4.4129-3.0799-0.31621-3.6701h4.1532v8h8.8571l3.1429-3.1429v-4.7437l-4.445-3.1134h-6.555l-0.079 1.25-0.0789 1.25-1.0088-2.5h-9.8333v3h4v8.1667l1.2396-0.4132 1.2396-0.41319-0.3162-3.6701zm6.837-0.9037v-2.8993l5.5 0.63284 0.6391 4.5-1.6391 0.1666-4.5 0.49909v-2.8993zm-258.1-18.052-1.6045-1.222-1.3529-4.2625 2.3128-5.076 4.6103-1.1571 4.866 1.8501 1.2728 3.3168v3.8364l-4 4-4.5-0.0636-1.6045-1.222zm33.104-0.71436-2-2v-4.6177l2.5-3.3553 6.2917-1.2353 4.2083 4.2083v5l-4 4h-5zm77.073-0.63486-2.0726-2.6349v-2.8212l4.9091-4.9091h4.0909l4 4v5.8866l-4.445 3.1134h-4.4098zm33.927 0.63486-2-2v-4.6177l2.5-3.2728 5.0866-1.2225 5.4134 4.2582v4.8548l-4 4h-5zm59.923-2.9231-2.9231-2.9231v-5.0423l4.8268-5.6115h9.3463l4.8268 5.6115v5.0423l-5.8462 5.8462h-7.3077zm-215.92-2.865v-1.7881l4.5-8.8067 5.6467-4.1171h10.707l5.6467 4.188 4.4671 7.812 0.0164 2.25 0.0165 2.25h-2v-3.0993l-3.0971-5.9891-6.4029-3.9041-8.7353-0.007476-7.7647 7.7647v5.2353h-3zm34 0v-1.7881l4.5-8.8067 5.6467-4.1171h10.707l5.6467 4.1171 4.5 8.8067v3.5762h-3v-4.1914l-3.2711-5.5375-5.5375-3.2711-7.6914 0.0074-6.1601 3.7564-3.3399 7.0384v2.1977h-2v-1.7881zm77.469-0.96189 0.68552-2.75 3.0923-6.5394 5.9361-4.2269 8.6215-0.97177 7.9601 4.4738 4.2358 7.5365v5.2277h-2v-2.1977l-3.3399-7.0384-6.1601-3.7564-7.6914-0.0074-5.8147 3.4348-3.907 7.8967 0.51558 0.83422 0.51557 0.83422h-3.3348l0.68553-2.75zm33.531 0.96189v-1.7881l4.5-8.8067 5.6467-4.1171h10.707l5.6467 4.188 4.4671 7.812 0.0165 2.25 0.0164 2.25h-3v-4.1914l-3.2711-5.5375-5.5375-3.2711h-7.2907l-5.6037 2.8978-3.316 5.0608-0.41724 5.0414h-2.5638zm96.357-7.7246-0.58049-1.5127 2.0479-2.4745 32.676 1 0.6391 4.5h-34.202zm-25.91-32.237 0.05355-5.75 7.5-0.62073v12.121h-7.6071l0.0536-5.75zm-138.8-0.014-2.3761-3.764-5.3428-10.544-19.43 0.57158v4l15.68 0.58738-1.3159 3.4126-2.2794 8.5h-18.308l0.42838-2.25 0.42837-2.25h15.366v-4l-14.406-1-1.9523-2-0.65743-2.6633-0.65742-2.6633 4.231-4.231 26.396 0.55765 8.0354 14.5 1.0109-0.017 3.9915-7.4915 3.9915-7.4915h27.517l4.1849 4.1849-1.379 4.3151 0.0652 3 0.68772 2.785 0.68771 2.785-1.7783 1.965-1.7783 1.965h-17.476l-1.214-3.1636 5e-3 -0.66821 5e-3 -0.66821 15.179-0.28901 2.2943-2.2943-1.4916-0.94305-1.4916-0.94305-16.5-0.030626-4e-3 -3.5h17.503v-4l-21.432-0.56698-2.6702 5.2695-2.6703 5.2695-2.3761 3.764-2.3752 3.764h-3.9498l-2.3761-3.764zm175.81-3.3025-0.65915-1.0665 0.35013-0.34028 0.35014-0.34028 7.9744-0.6771 0.33612 1.7454 0.33613 1.7454h-8.0286zm19.208-4.6001-0.66667-0.66667v-5.0391l-4.186-15.128-8.814-18.137v-1.5522l7.1581 8.5677 5.0282 9.9227 1.4044 4.5994 1.4044 4.5994 1.2921 13.5h-1.9539zm-20.167-1.8623-8-1.2997-14.43-3.1289-11.357-3.9917-3.7135-3.3606v-22.69h31.608l6.2672 6.5 5.9497 12.034 3.1755 12.255v5.2113l-1.5-0.22929z"
      fill="#727272" />
    <path
      d="m323.3 93.255 8.7991-0.33401 16.402 0.67221-34-0.0042 8.7991-0.33401zm-32.537-27.962 2.2617-0.4349 3.4767 0.91016-8-0.04036zm-1.7617-6.5427v-3.75h7v7.5h-7zm54.281-15.139-2.131-9.3886-10.121-21.723 6.8915 8 5.0992 10.413 2.8437 11.587 1.3249 10.5h-1.7758zm-20.168 6.158-10.387-1.7307-19.191-5.2282-5.5341-2.8618v-23.949h30.866l6.8927 8.5 4.0104 8 2.1794 7.792 2.1794 7.792-0.31405 1.708-0.31404 1.708z"
      fill="#2e2e2e" />
  </g>
</svg>
