<?xml version="1.0" encoding="UTF-8" standalone="no"?>
<!-- Created with Inkscape (http://www.inkscape.org/) -->

<svg
   version="1.1"
   id="svg105"
   width="225"
   height="225"
   viewBox="0 0 225 225"
   sodipodi:docname="temp1.png"
   xmlns:inkscape="http://www.inkscape.org/namespaces/inkscape"
   xmlns:sodipodi="http://sodipodi.sourceforge.net/DTD/sodipodi-0.dtd"
   xmlns="http://www.w3.org/2000/svg"
   xmlns:svg="http://www.w3.org/2000/svg">
  <defs
     id="defs109" />
  <sodipodi:namedview
     id="namedview107"
     pagecolor="#ffffff"
     bordercolor="#000000"
     borderopacity="0.25"
     inkscape:showpageshadow="2"
     inkscape:pageopacity="0.0"
     inkscape:pagecheckerboard="0"
     inkscape:deskcolor="#d1d1d1"
     showgrid="false" />
  <g
     inkscape:groupmode="layer"
     inkscape:label="Image"
     id="g111">
    <g
       id="g225"
       transform="matrix(1.0339422,0,0,1.04583,-4.4211882,-0.4332629)">
      <path
         style="fill:#cccccc"
         d="m 75.25,138.31067 c 0.9625,-0.25152 2.5375,-0.25152 3.5,0 0.9625,0.25153 0.175,0.45733 -1.75,0.45733 -1.925,0 -2.7125,-0.2058 -1.75,-0.45733 z m 68.5,-0.0164 c 1.2375,-0.23836 3.2625,-0.23836 4.5,0 1.2375,0.23835 0.225,0.43337 -2.25,0.43337 -2.475,0 -3.4875,-0.19502 -2.25,-0.43337 z m 31,-0.0408 c 6.1875,-0.17544 16.3125,-0.17544 22.5,0 6.1875,0.17545 1.125,0.319 -11.25,0.319 -12.375,0 -17.4375,-0.14355 -11.25,-0.319 z m -152,-0.97689 c 1.7875,-0.22182 4.7125,-0.22182 6.5,0 1.7875,0.22183 0.325,0.40333 -3.25,0.40333 -3.575,0 -5.0375,-0.1815 -3.25,-0.40333 z M 217,133.62244 c 0,-0.20765 0.7875,-0.99515 1.75,-1.75 1.58606,-1.24387 1.62143,-1.2085 0.37756,0.37756 C 217.82119,133.91575 217,134.44548 217,133.62244 Z M 221.35496,120.5 c -0.003,-4.95 0.16605,-7.10108 0.37577,-4.78017 0.20972,2.3209 0.21222,6.3709 0.006,9 -0.20667,2.62909 -0.37827,0.73017 -0.38131,-4.21983 z m -17.27601,-3.08333 c 0.048,-1.16495 0.28494,-1.4019 0.60416,-0.60417 0.28887,0.72187 0.25335,1.58437 -0.0789,1.91667 -0.3323,0.33229 -0.56864,-0.25834 -0.52522,-1.3125 z M 50.872445,114.25 c -1.243871,-1.58606 -1.208501,-1.62143 0.377555,-0.37756 0.9625,0.75485 1.75,1.54235 1.75,1.75 0,0.82304 -0.821186,0.29331 -2.127555,-1.37244 z M 182.75,113.26779 c 2.3375,-0.21053 6.1625,-0.21053 8.5,0 2.3375,0.21054 0.425,0.3828 -4.25,0.3828 -4.675,0 -6.5875,-0.17226 -4.25,-0.3828 z M 218.40499,108.75 216.5,106.5 l 2.25,1.90499 c 2.11444,1.79022 2.70524,2.59501 1.90499,2.59501 -0.18976,0 -1.20226,-1.0125 -2.25,-2.25 z M 43.75,100.2596 c 3.4375,-0.19527 9.0625,-0.19527 12.5,0 3.4375,0.19527 0.625,0.35504 -6.25,0.35504 -6.875,0 -9.6875,-0.15977 -6.25,-0.35504 z m 153.5,-0.948926 c 0.9625,-0.251527 2.5375,-0.251527 3.5,0 0.9625,0.251528 0.175,0.457323 -1.75,0.457323 -1.925,0 -2.7125,-0.205795 -1.75,-0.457323 z M 221.32007,93 c 0,-3.575 0.1815,-5.0375 0.40333,-3.25 0.22182,1.7875 0.22182,4.7125 0,6.5 -0.22183,1.7875 -0.40333,0.325 -0.40333,-3.25 z m -76.45492,-1.266406 c 0.42222,-0.421523 13.11278,-0.64602 28.20126,-0.498881 L 200.5,91.502237 172.29875,92.001119 c -15.51069,0.274384 -27.85581,0.153998 -27.4336,-0.267525 z M 217.40499,81.75 215.5,79.5 l 2.25,1.904988 C 219.86444,83.195206 220.45524,84 219.65499,84 c -0.18976,0 -1.20226,-1.0125 -2.25,-2.25 z M 38.75,75.252016 c 8.3875,-0.16726 22.1125,-0.16726 30.5,0 8.3875,0.167259 1.525,0.304108 -15.25,0.304108 -16.775,0 -23.6375,-0.136849 -15.25,-0.304108 z m 116.43598,-2.9e-5 c 9.17729,-0.164871 24.47729,-0.165165 34,-6.55e-4 9.52271,0.164511 2.01402,0.299404 -16.68598,0.299765 -18.7,3.6e-4 -26.49131,-0.13424 -17.31402,-0.29911 z"
         id="path237" />
      <path
         style="fill:#adadad"
         d="m 109.75,140.33772 c 0.6875,-0.27741 1.8125,-0.27741 2.5,0 0.6875,0.27741 0.125,0.50439 -1.25,0.50439 -1.375,0 -1.9375,-0.22698 -1.25,-0.50439 z M 7.4324358,130.25328 7.5,122.5 l 21.250639,-0.0306 21.250638,-0.0306 -20.95893,0.30033 -20.9589301,0.30032 -0.3592727,7.48352 -0.3592727,7.48352 0.067564,-7.75329 z M 15.25,137.31067 c 0.9625,-0.25152 2.5375,-0.25152 3.5,0 0.9625,0.25153 0.175,0.45733 -1.75,0.45733 -1.925,0 -2.7125,-0.2058 -1.75,-0.45733 z m 38.511659,-1.01793 c 1.243913,-0.23919 3.043913,-0.23011 4,0.0202 0.956088,0.25029 -0.06166,0.446 -2.261659,0.4349 -2.2,-0.0111 -2.982253,-0.21589 -1.738341,-0.45508 z M 163.75,122.26276 c 2.8875,-0.202 7.6125,-0.202 10.5,0 2.8875,0.202 0.525,0.36728 -5.25,0.36728 -5.775,0 -8.1375,-0.16528 -5.25,-0.36728 z m 32.5,-8.95209 c 0.9625,-0.25152 2.5375,-0.25152 3.5,0 0.9625,0.25153 0.175,0.45733 -1.75,0.45733 -1.925,0 -2.7125,-0.2058 -1.75,-0.45733 z M 28.75,100.2766 c 1.7875,-0.22182 4.7125,-0.22182 6.5,0 1.7875,0.22183 0.325,0.40333 -3.25,0.40333 -3.575,0 -5.0375,-0.1815 -3.25,-0.40333 z m 126.51903,0.0304 c 0.97297,-0.25354 2.32297,-0.23687 3,0.037 0.67703,0.27393 -0.11903,0.48137 -1.76903,0.46099 -1.65,-0.0204 -2.20394,-0.2445 -1.23097,-0.49804 z M 39.25,91.252791 c 7.0125,-0.1719 18.4875,-0.1719 25.5,0 7.0125,0.1719 1.275,0.312545 -12.75,0.312545 -14.025,0 -19.7625,-0.140645 -12.75,-0.312545 z M 7,83.622445 c 0,-0.207656 0.7875,-0.995156 1.75,-1.75 C 10.336056,80.628574 10.371426,80.663944 9.1275553,82.25 7.8211855,83.915748 7,84.445479 7,83.622445 Z"
         id="path235" />
      <path
         style="fill:#868686"
         d="m 10.75,137.33772 c 0.6875,-0.27741 1.8125,-0.27741 2.5,0 0.6875,0.27741 0.125,0.50439 -1.25,0.50439 -1.375,0 -1.9375,-0.22698 -1.25,-0.50439 z m 34.011659,-1.04498 c 1.243913,-0.23919 3.043913,-0.23011 4,0.0202 0.956088,0.25029 -0.06166,0.446 -2.261659,0.4349 -2.2,-0.0111 -2.982253,-0.21589 -1.738341,-0.45508 z M 181.7277,122.27827 c 1.77523,-0.22091 4.92523,-0.22454 7,-0.008 2.07476,0.21648 0.6223,0.39722 -3.2277,0.40166 -3.85,0.004 -5.54754,-0.17268 -3.7723,-0.39359 z M 157.75,112.33772 c 0.6875,-0.27741 1.8125,-0.27741 2.5,0 0.6875,0.27741 0.125,0.50439 -1.25,0.50439 -1.375,0 -1.9375,-0.22698 -1.25,-0.50439 z M 215,105.62244 c 0,-0.20765 0.7875,-0.99515 1.75,-1.75 1.58606,-1.24387 1.62143,-1.2085 0.37756,0.37756 C 215.82119,105.91575 215,106.44548 215,105.62244 Z m -54.25,-5.32817 c 1.2375,-0.23836 3.2625,-0.23836 4.5,0 1.2375,0.23835 0.225,0.43337 -2.25,0.43337 -2.475,0 -3.4875,-0.19502 -2.25,-0.43337 z"
         id="path233" />
      <path
         style="fill:#f8820a"
         d="m 66,137.2008 c 0,-0.43956 1.575,-0.61533 3.5,-0.39059 1.925,0.22473 3.5,0.58437 3.5,0.7992 C 73,137.82423 71.425,138 69.5,138 67.575,138 66,137.64036 66,137.2008 Z m 85.26903,0.10621 c 0.97297,-0.25354 2.32297,-0.23687 3,0.0371 0.67703,0.27393 -0.11903,0.48137 -1.76903,0.46099 -1.65,-0.0204 -2.20394,-0.2445 -1.23097,-0.49804 z M 146,111 c 0,-0.55 0.47656,-1 1.05902,-1 0.58246,0 0.7809,0.45 0.44098,1 -0.33992,0.55 -0.81648,1 -1.05902,1 C 146.19844,112 146,111.55 146,111 Z"
         id="path231" />
      <path
         style="fill:#7e7e7e"
         d="m 104.5,138.10688 c -2.25132,-1.41506 -5.994738,-7.52414 -15,-24.47924 l -12,-22.593605 -25.027494,-0.01702 c -21.052614,-0.01431 -25.380473,0.230219 -27.25,1.539686 -2.753623,1.928713 -2.912185,6.003824 -0.288247,7.408112 C 26.095052,100.58605 35.441215,101 48.306868,101 h 21.438351 l -5.430334,17.22439 c -2.986684,9.47342 -5.550922,17.34498 -5.698308,17.49237 -0.147386,0.14738 -10.35891,0.51807 -22.692276,0.82375 C 23.590936,136.84619 12.2625,137.28837 10.75,137.52314 L 8,137.95 V 130.475 123 h 20.845012 c 18.924318,0 20.997506,-0.1685 22.5,-1.82874 1.944195,-2.14831 2.148445,-5.2778 0.454988,-6.97126 -0.828408,-0.82841 -6.015211,-1.2068 -16.75,-1.22196 -13.003668,-0.0184 -16.221919,-0.32711 -19.65329,-1.88543 C 9.5292104,108.42796 6.2391409,104.42767 4.8650296,98.287494 3.321974,91.392395 4.7919775,86.267842 9.4982609,82.135671 15.840444,76.56716 19.96935,76 54.165725,76 h 30.802722 l 2.907368,2.75 c 1.599052,1.5125 5.051724,6.8 7.672604,11.75 2.620881,4.95 6.513231,12.15 8.649681,16 2.13644,3.85 4.39341,8.02415 5.01548,9.2759 0.62208,1.25174 1.55591,2.13427 2.07519,1.96118 0.51928,-0.1731 5.83393,-9.05224 11.81034,-19.73143 6.41674,-11.466017 11.79462,-19.932257 13.13354,-20.675745 1.69532,-0.941395 10.84514,-1.26551 36.26735,-1.284701 33.67662,-0.02542 34.04831,-0.0032 39.07886,2.339272 C 218.996,81.838214 221,84.862055 221,92.600062 c 0,5.649694 -0.33248,6.709016 -3.09218,9.852138 l -3.09217,3.5218 3.09217,2.60189 c 3.01934,2.54061 3.09218,2.80657 3.09218,11.2905 0,10.26132 -0.91926,12.04553 -8.0741,15.67116 -4.87962,2.47269 -5.18304,2.49768 -27.10119,2.23157 L 163.65839,137.5 l -2.2132,-7.25 -2.2132,-7.25 15.63401,-0.1175 c 20.28609,-0.15245 27.12361,-0.62899 28.78281,-2.006 1.98685,-1.64894 1.64599,-5.64836 -0.58307,-6.84132 -1.13444,-0.60713 -9.71462,-1.03973 -20.75,-1.04619 -10.34866,-0.006 -20.44285,-0.28013 -22.43153,-0.60906 -3.36675,-0.55686 -3.71644,-0.95964 -5.07694,-5.84762 l -1.46114,-5.24956 10.4825,-0.64137 C 169.594,100.28862 180.71798,100 188.54857,100 203.66947,100 204,99.892044 204,94.953396 204,91.392674 200.88587,91 172.6473,91 h -27.48418 l -1.94854,3.25 c -1.0717,1.7875 -4.31186,7.75 -7.20036,13.25 -13.41802,25.54931 -15.32395,28.7178 -18.40441,30.59621 -3.96361,2.41695 -9.27462,2.42127 -13.10981,0.0107 z"
         id="path229" />
      <path
         style="fill:#fc7c00"
         d="m 74.153637,137.75308 c -8.553892,-1.12311 -8.263101,0.90975 -2.563772,-17.92282 3.481263,-11.50331 3.960826,-12.48905 5.208992,-10.70704 1.126986,1.60899 1.142514,2.27033 0.08616,3.66974 -1.084289,1.43642 -1.069853,1.51239 0.09106,0.47919 1.137411,-1.01229 2.139141,0.1701 5.705722,6.73472 l 4.326095,7.96257 -1.795933,5.19594 c -0.987764,2.85777 -2.227041,5.27612 -2.75395,5.37411 -0.526909,0.098 -4.263879,-0.25589 -8.304379,-0.78641 z m 64.538593,0.49909 c -0.23567,-0.4137 -0.96687,-3.04866 -1.62491,-5.85548 l -1.19642,-5.10331 5.20029,-10.14669 c 5.28386,-10.30974 6.66265,-12.20666 5.49714,-7.5629 -0.38858,1.5482 -0.26487,2.3467 0.30865,1.99224 0.94665,-0.58506 1.95058,2.09199 6.05322,16.14145 1.15919,3.96961 2.32591,7.79461 2.59272,8.5 0.34636,0.91569 -0.80854,1.31833 -4.03775,1.40773 -2.48757,0.0689 -6.28722,0.40733 -8.44366,0.75216 -2.15644,0.34483 -4.11362,0.28849 -4.34928,-0.1252 z"
         id="path227" />
    </g>
  </g>
</svg>
